<svg xmlns="http://www.w3.org/2000/svg" xmlns:xlink="http://www.w3.org/1999/xlink" width="299.267" height="220.837" viewBox="0 0 299.267 220.837">
  <defs>
    <filter id="Rectangle_218" x="107.26" y="71.877" width="81.651" height="80.257" filterUnits="userSpaceOnUse">
      <feOffset dy="3" input="SourceAlpha"/>
      <feGaussianBlur stdDeviation="6" result="blur"/>
      <feFlood flood-color="#1a2fb3" flood-opacity="0.078"/>
      <feComposite operator="in" in2="blur"/>
      <feComposite in="SourceGraphic"/>
    </filter>
    <filter id="Rectangle_230" x="56.235" y="71.877" width="81.651" height="80.257" filterUnits="userSpaceOnUse">
      <feOffset dy="3" input="SourceAlpha"/>
      <feGaussianBlur stdDeviation="6" result="blur-2"/>
      <feFlood flood-color="#1a2fb3" flood-opacity="0.078"/>
      <feComposite operator="in" in2="blur-2"/>
      <feComposite in="SourceGraphic"/>
    </filter>
    <filter id="Rectangle_219" x="158.539" y="71.877" width="81.651" height="80.257" filterUnits="userSpaceOnUse">
      <feOffset dy="3" input="SourceAlpha"/>
      <feGaussianBlur stdDeviation="6" result="blur-3"/>
      <feFlood flood-color="#1a2fb3" flood-opacity="0.078"/>
      <feComposite operator="in" in2="blur-3"/>
      <feComposite in="SourceGraphic"/>
    </filter>
    <clipPath id="clip-path">
      <path id="Path_880" data-name="Path 880" d="M289.755,376.05a3.7,3.7,0,0,0,.271,2.563c-.12.055-.03.547.186.647a5.418,5.418,0,0,0,2.458-.2.391.391,0,0,0,0-.331,3.745,3.745,0,0,0,1.76-.07,6.6,6.6,0,0,0,2.508-.948c.155-.1.05-.441-.125-.386,0,0-.11-.9-.868-.858a5.708,5.708,0,0,1-3.456-1,2.929,2.929,0,0,0-1.028-.451A1.76,1.76,0,0,0,289.755,376.05Z" transform="translate(-289.639 -375.014)" fill="#ed0c37"/>
    </clipPath>
    <clipPath id="clip-path-2">
      <path id="Path_889" data-name="Path 889" d="M212.126,368.142a3.681,3.681,0,0,0-2.006,1.625c-.11-.07-.471.276-.441.5a5.483,5.483,0,0,0,1.5,1.951c.161,0,.271-.191.271-.191a3.651,3.651,0,0,0,1,1.439,6.656,6.656,0,0,0,2.162,1.59c.166.075.4-.206.256-.321,0,0,.7-.587.246-1.194a5.7,5.7,0,0,1-1.038-3.446,2.859,2.859,0,0,0-.186-1.108A1.761,1.761,0,0,0,212.126,368.142Z" transform="translate(-209.676 -368.123)" fill="#ed0c37"/>
    </clipPath>
    <clipPath id="clip-path-3">
      <path id="Path_918" data-name="Path 918" d="M490.816,371.34a14.314,14.314,0,0,1,1.2,1.149c.171.251.828,2.122.828,2.122a1.6,1.6,0,0,1-1,.712l-.833-1.073a10.563,10.563,0,0,1-.858,2.483c-.5.732-3.511,1.58-3.937,1.359a1.319,1.319,0,0,1,.386-1.69,4.484,4.484,0,0,0,1.76-3.421,1.625,1.625,0,0,1,2.458-1.64Z" transform="translate(-486.053 -371.098)" fill="#fd6141"/>
    </clipPath>
    <clipPath id="clip-path-4">
      <path id="Path_924" data-name="Path 924" d="M503.064,373.664a14.052,14.052,0,0,1,.707,1.5c.07.3.025,2.272.025,2.272a1.57,1.57,0,0,1-1.219.3l-.4-1.294a5.416,5.416,0,0,1-1.229,1.68,8.269,8.269,0,0,1-3.852.9s-.617-1.189.371-1.69c2.468-1.269,2.688-3.009,2.688-3.009a1.625,1.625,0,0,1,2.9-.662Z" transform="translate(-496.911 -373.004)" fill="#fd6141"/>
    </clipPath>
  </defs>
  <g id="onboarding3" transform="translate(-46.867 -194.001)">
    <g id="_2741842" data-name="2741842" transform="translate(13.186 194.017)">
      <g id="OBJECTS" transform="translate(33.681 24.891)">
        <path id="Path_727" data-name="Path 727" d="M364.735,306.663c-.928-4.775-9.8-5.567-9.8-5.567s5.181-8.652,1.5-12.539-12.128,5.281-12.128,5.281-2.789-5.813-6.941,0c0,0-6.911-5.281-12.895-2.568-4.268,1.936-3.641,7.057-2.929,9.83H204.113a2.87,2.87,0,0,0-.376-.592c-3.967-4.79-15.473-2.327-15.473-2.327s4.8-11.867-3.12-15.463-17.083,3.4-17.083,3.4c-5.517-7.7-9.2,0-9.2,0s-11.195-12.183-16.05-7,2.006,16.647,2.006,16.647-11.761,1.053-12.99,7.378,20.313,12.89,20.313,12.89l197.235.376S365.658,311.438,364.735,306.663Z" transform="translate(-104.141 -166.907)" fill="#71bf9d"/>
        <path id="Path_728" data-name="Path 728" d="M178.284,322.835A88.273,88.273,0,0,0,162.47,295.25" transform="translate(-119.439 -175.587)" fill="none" stroke="#ff4d62" stroke-linecap="round" stroke-linejoin="round" stroke-width="1"/>
        <path id="Path_729" data-name="Path 729" d="M194,327.488a171.83,171.83,0,0,1,2.468-23.658" transform="translate(-135.155 -179.863)" fill="none" stroke="#ff4d62" stroke-linecap="round" stroke-linejoin="round" stroke-width="1"/>
        <path id="Path_730" data-name="Path 730" d="M173.62,334.786a58.066,58.066,0,0,0-16.24-5.246" transform="translate(-116.902 -192.678)" fill="none" stroke="#ff4d62" stroke-linecap="round" stroke-linejoin="round" stroke-width="1"/>
        <path id="Path_731" data-name="Path 731" d="M179.34,311.053a28.85,28.85,0,0,0,2.091-7.523" transform="translate(-127.848 -179.714)" fill="none" stroke="#ff4d62" stroke-linecap="round" stroke-linejoin="round" stroke-width="1"/>
        <path id="Path_732" data-name="Path 732" d="M547.86,330.068A70.608,70.608,0,0,1,560.524,308" transform="translate(-311.536 -181.942)" fill="none" stroke="#ff4d62" stroke-linecap="round" stroke-linejoin="round" stroke-width="0.8"/>
        <path id="Path_733" data-name="Path 733" d="M545.906,333.759a137.142,137.142,0,0,0-1.976-18.939" transform="translate(-309.577 -185.341)" fill="none" stroke="#ff4d62" stroke-linecap="round" stroke-linejoin="round" stroke-width="0.8"/>
        <path id="Path_734" data-name="Path 734" d="M551.27,339.618a46.344,46.344,0,0,1,13-4.2" transform="translate(-313.236 -195.609)" fill="none" stroke="#ff4d62" stroke-linecap="round" stroke-linejoin="round" stroke-width="0.8"/>
        <path id="Path_735" data-name="Path 735" d="M557.945,320.629a23.108,23.108,0,0,1-1.675-6.019" transform="translate(-315.728 -185.237)" fill="none" stroke="#ff4d62" stroke-linecap="round" stroke-linejoin="round" stroke-width="0.8"/>
        <path id="Path_736" data-name="Path 736" d="M173.743,285.93a.671.671,0,0,1,.246.125.611.611,0,0,1,.181.211.221.221,0,0,1-.11.291.21.21,0,0,1-.135,0,.811.811,0,0,1-.246-.125.728.728,0,0,1-.176-.211.221.221,0,0,1,.105-.286.186.186,0,0,1,.135,0Z" transform="translate(-124.929 -170.936)" fill="#fff"/>
        <path id="Path_737" data-name="Path 737" d="M175.317,287.219a.662.662,0,0,1,.416.351.216.216,0,0,1-.115.281.211.211,0,0,1-.135,0,.693.693,0,0,1-.241-.13.722.722,0,0,1-.171-.216.216.216,0,0,1,.11-.286A.211.211,0,0,1,175.317,287.219Z" transform="translate(-125.711 -171.578)" fill="#fff"/>
        <path id="Path_738" data-name="Path 738" d="M176.879,288.549a.7.7,0,0,1,.406.361.221.221,0,0,1-.12.281.271.271,0,0,1-.14,0,.657.657,0,0,1-.236-.14.592.592,0,0,1-.166-.216.221.221,0,0,1,.115-.286A.225.225,0,0,1,176.879,288.549Z" transform="translate(-126.486 -172.241)" fill="#fff"/>
        <path id="Path_739" data-name="Path 739" d="M179.573,290.991a.747.747,0,0,1,.236.145.667.667,0,0,1,.155.231.216.216,0,0,1-.13.276.265.265,0,0,1-.14,0,.677.677,0,0,1-.386-.371.221.221,0,0,1,.13-.281A.251.251,0,0,1,179.573,290.991Z" transform="translate(-127.825 -173.459)" fill="#fff"/>
        <path id="Path_740" data-name="Path 740" d="M181.445,292.815a.271.271,0,0,1,.155.075.286.286,0,0,1,.075.155.256.256,0,0,1-.231.271H181.4a.305.305,0,0,1-.155-.08.241.241,0,0,1-.075-.15.251.251,0,0,1,.226-.276Z" transform="translate(-128.759 -174.37)" fill="#fff"/>
        <path id="Path_741" data-name="Path 741" d="M182.961,294.395a.276.276,0,0,1,.155.08.3.3,0,0,1,.07.155.251.251,0,0,1-.236.266.07.07,0,0,1-.045,0,.276.276,0,0,1-.155-.08.281.281,0,0,1-.07-.155.261.261,0,0,1,.231-.271Z" transform="translate(-129.513 -175.158)" fill="#fff"/>
        <path id="Path_742" data-name="Path 742" d="M155.981,280.011a4.248,4.248,0,0,1,2.267-.592,6.59,6.59,0,0,1,2.277.5,14.9,14.9,0,0,1,2.041,1.073,21.229,21.229,0,0,1,1.861,1.329.191.191,0,0,1,0,.271.2.2,0,0,1-.261.04c-.612-.436-1.234-.853-1.876-1.234a13.9,13.9,0,0,0-1.976-1,6.111,6.111,0,0,0-2.1-.5,4.067,4.067,0,0,0-2.056.451.206.206,0,0,1-.261-.08.181.181,0,0,1,.085-.256Z" transform="translate(-116.151 -167.695)" fill="#fff"/>
        <path id="Path_743" data-name="Path 743" d="M155.041,281.472c0,.085-.085.12-.125.181a.376.376,0,0,1-.186.12.231.231,0,0,1-.286-.145.275.275,0,0,1,0-.11.562.562,0,0,1,.125-.221.417.417,0,0,1,.221-.12.221.221,0,0,1,.261.186A.27.27,0,0,1,155.041,281.472Z" transform="translate(-115.436 -168.569)" fill="#fff"/>
        <path id="Path_744" data-name="Path 744" d="M153.972,282.76a.427.427,0,0,1-.075.211.571.571,0,0,1-.15.16.236.236,0,0,1-.311-.075.285.285,0,0,1-.035-.11.467.467,0,0,1,.07-.236.551.551,0,0,1,.186-.171.221.221,0,0,1,.3.11A.216.216,0,0,1,153.972,282.76Z" transform="translate(-114.918 -169.24)" fill="#fff"/>
        <path id="Path_745" data-name="Path 745" d="M152.918,284.183a4.135,4.135,0,0,1-.12.426l-.105.436c-.075.286-.135.582-.216.873a.2.2,0,0,1-.241.135.181.181,0,0,1-.145-.181,4.011,4.011,0,0,1,.115-.948l.145-.461a3.511,3.511,0,0,1,.211-.436.191.191,0,0,1,.271-.06.206.206,0,0,1,.085.216Z" transform="translate(-114.265 -169.946)" fill="#fff"/>
        <path id="Path_746" data-name="Path 746" d="M152.291,289.337a.211.211,0,0,1,.05.14.181.181,0,0,1-.06.13.276.276,0,0,1-.381,0h0a.2.2,0,0,1-.05-.14.176.176,0,0,1,.06-.135.271.271,0,0,1,.381,0Z" transform="translate(-114.145 -172.598)" fill="#fff"/>
        <path id="Path_747" data-name="Path 747" d="M152.306,291.179a.23.23,0,0,1,.06.135.216.216,0,0,1-.05.135.281.281,0,0,1-.386.025h0a.231.231,0,0,1-.06-.14.21.21,0,0,1,.05-.14.276.276,0,0,1,.381,0Z" transform="translate(-114.156 -173.527)" fill="#fff"/>
        <path id="Path_748" data-name="Path 748" d="M578.663,310.6a.865.865,0,0,1,0,.3.738.738,0,0,1-.125.271.211.211,0,0,1-.306.03.225.225,0,0,1-.07-.12.8.8,0,0,1,.125-.562.216.216,0,0,1,.306-.04A.206.206,0,0,1,578.663,310.6Z" transform="translate(-326.635 -183.157)" fill="#fff"/>
        <path id="Path_749" data-name="Path 749" d="M578.145,312.724a.73.73,0,0,1,0,.3.693.693,0,0,1-.13.266.216.216,0,0,1-.311,0,.251.251,0,0,1-.065-.125.928.928,0,0,1,0-.291.773.773,0,0,1,.13-.266.216.216,0,0,1,.306-.025A.26.26,0,0,1,578.145,312.724Z" transform="translate(-326.373 -184.198)" fill="#fff"/>
        <path id="Path_750" data-name="Path 750" d="M577.509,314.8a.726.726,0,0,1-.03.3.828.828,0,0,1-.14.261.216.216,0,0,1-.311,0,.241.241,0,0,1-.06-.13.708.708,0,0,1,.035-.291.744.744,0,0,1,.135-.256.211.211,0,0,1,.371.11Z" transform="translate(-326.043 -185.236)" fill="#fff"/>
        <path id="Path_751" data-name="Path 751" d="M576.257,318.552a.786.786,0,0,1-.045.291.8.8,0,0,1-.155.256.221.221,0,0,1-.366-.14.8.8,0,0,1,.2-.537.211.211,0,0,1,.311,0A.252.252,0,0,1,576.257,318.552Z" transform="translate(-325.408 -187.102)" fill="#fff"/>
        <path id="Path_752" data-name="Path 752" d="M575.373,321.172a.331.331,0,0,1,0,.186.3.3,0,0,1-.115.14.246.246,0,0,1-.341-.1.18.18,0,0,1,0-.045.331.331,0,0,1,0-.186.3.3,0,0,1,.115-.14.246.246,0,0,1,.341.1A.215.215,0,0,1,575.373,321.172Z" transform="translate(-325.016 -188.418)" fill="#fff"/>
        <path id="Path_753" data-name="Path 753" d="M574.46,323.334a.358.358,0,0,1,0,.181.321.321,0,0,1-.12.14.246.246,0,0,1-.341-.11.459.459,0,0,1,0-.05.356.356,0,0,1,0-.181.305.305,0,0,1,.12-.135.246.246,0,0,1,.341.105Q574.461,323.309,574.46,323.334Z" transform="translate(-324.559 -189.492)" fill="#fff"/>
        <path id="Path_754" data-name="Path 754" d="M567.947,300.467a9.109,9.109,0,0,1,2.257-1,3.24,3.24,0,0,1,2.508.191,2.1,2.1,0,0,1,.843,1.033,4.583,4.583,0,0,1,.261,1.254,10.033,10.033,0,0,1-.226,2.458.2.2,0,1,1-.381-.065,11.031,11.031,0,0,0,.13-2.362,2.293,2.293,0,0,0-.888-1.891,2.769,2.769,0,0,0-2.147-.156,9.612,9.612,0,0,0-2.177.9.2.2,0,0,1-.2-.341Z" transform="translate(-321.492 -177.604)" fill="#fff"/>
        <path id="Path_755" data-name="Path 755" d="M566.807,302.47a.577.577,0,0,1-.406.261.221.221,0,0,1-.241-.211.255.255,0,0,1,.025-.11.566.566,0,0,1,.176-.186.627.627,0,0,1,.241-.085.221.221,0,0,1,.236.221A.2.2,0,0,1,566.807,302.47Z" transform="translate(-320.658 -179.02)" fill="#fff"/>
        <path id="Path_756" data-name="Path 756" d="M565.274,303.49a.537.537,0,0,1-.165.186.572.572,0,0,1-.226.1.221.221,0,0,1-.251-.2.225.225,0,0,1,0-.115.542.542,0,0,1,.4-.286.221.221,0,0,1,.246.206A.231.231,0,0,1,565.274,303.49Z" transform="translate(-319.892 -179.533)" fill="#fff"/>
        <path id="Path_757" data-name="Path 757" d="M562.606,304.551c-.236.231-.5.436-.742.647a9.15,9.15,0,0,1-.787.587.191.191,0,0,1-.276-.055.2.2,0,0,1,0-.236,6.244,6.244,0,0,1,.732-.682,6.118,6.118,0,0,1,.818-.572.191.191,0,0,1,.271.07A.206.206,0,0,1,562.606,304.551Z" transform="translate(-317.967 -180.053)" fill="#fff"/>
        <path id="Path_758" data-name="Path 758" d="M559.671,308.181a.22.22,0,0,1-.07.135.225.225,0,0,1-.145.06.261.261,0,0,1-.266-.276h0a.25.25,0,0,1,.07-.14.226.226,0,0,1,.146-.06.266.266,0,0,1,.266.281Z" transform="translate(-317.183 -181.892)" fill="#fff"/>
        <path id="Path_759" data-name="Path 759" d="M558.247,309.55a.246.246,0,0,1-.065.14.216.216,0,0,1-.145.06.266.266,0,0,1-.276-.266h0a.226.226,0,0,1,.211-.206.256.256,0,0,1,.271.271Z" transform="translate(-316.471 -182.579)" fill="#fff"/>
        <path id="Path_760" data-name="Path 760" d="M248.214,153.487c-30.038-.5-110.367,24.39-120.167,0-8.08-20.1,22.118-18.557,23.874-35.209s-6.1-23.733,6.43-31.437,32.957,3.009,46.449-7.7,20.529-18.5,50.893-22.194,52.839,30.514,65.829,33.9,31.6-5.241,40.731,5.241-20.363,33.669-14.043,43.339,21.8,14.916,15.814,28.478S277.435,153.943,248.214,153.487Z" transform="translate(-101.598 -56.664)" fill="#f6f8fd"/>
        <path id="Path_761" data-name="Path 761" d="M130,230.349a1.053,1.053,0,0,1,.075-.381,1.364,1.364,0,0,1,.2-.341.191.191,0,0,1,.316,0,.256.256,0,0,1,.04.16,1.219,1.219,0,0,1-.08.366,1.916,1.916,0,0,1-.176.331.2.2,0,0,1-.321.035A.291.291,0,0,1,130,230.349Z" transform="translate(-103.254 -142.835)" fill="#fdfdff"/>
        <path id="Path_762" data-name="Path 762" d="M131.044,227.721a1.184,1.184,0,0,1,.13-.366,1.219,1.219,0,0,1,.231-.311c.12-.1.266-.085.321.035a.286.286,0,0,1,0,.16,1.619,1.619,0,0,1-.125.351,1.4,1.4,0,0,1-.221.3c-.105.11-.251.11-.316,0A.261.261,0,0,1,131.044,227.721Z" transform="translate(-103.772 -141.557)" fill="#fdfdff"/>
        <path id="Path_763" data-name="Path 763" d="M132.469,225.265a1.374,1.374,0,0,1,.166-.346,1.2,1.2,0,0,1,.271-.281c.13-.09.266-.06.311.065a.266.266,0,0,1,0,.166,1.31,1.31,0,0,1-.176.331,1.179,1.179,0,0,1-.246.281c-.125.09-.271.07-.321-.045A.281.281,0,0,1,132.469,225.265Z" transform="translate(-104.48 -140.364)" fill="#fdfdff"/>
        <path id="Path_764" data-name="Path 764" d="M135.648,221.356a1.1,1.1,0,0,1,.226-.316,1,1,0,0,1,.311-.226.2.2,0,0,1,.3.115.276.276,0,0,1,0,.166,1.5,1.5,0,0,1-.226.3,1.369,1.369,0,0,1-.3.231c-.135.07-.271.025-.3-.1A.241.241,0,0,1,135.648,221.356Z" transform="translate(-106.064 -138.471)" fill="#fdfdff"/>
        <path id="Path_765" data-name="Path 765" d="M138.3,219.114a.5.5,0,0,1,.356-.291.211.211,0,0,1,.261.246v.06a.461.461,0,0,1-.14.181.472.472,0,0,1-.206.105c-.171.025-.291-.08-.266-.241A.25.25,0,0,1,138.3,219.114Z" transform="translate(-107.392 -137.488)" fill="#fdfdff"/>
        <path id="Path_766" data-name="Path 766" d="M140.762,217.3a.494.494,0,0,1,.386-.256.206.206,0,0,1,.226.276.181.181,0,0,1,0,.055.416.416,0,0,1-.155.166.5.5,0,0,1-.216.08c-.171,0-.281-.11-.241-.266a.181.181,0,0,1,0-.055Z" transform="translate(-108.615 -136.605)" fill="#fdfdff"/>
        <path id="Path_767" data-name="Path 767" d="M132.683,244.495c-.366-.391-.672-.828-1-1.244a10.788,10.788,0,0,1-.853-1.354,15.3,15.3,0,0,1-.717-1.434l-.587-1.5a12.2,12.2,0,0,1-.632-3.145,9.9,9.9,0,0,1,.321-3.19c.04-.145.155-.236.261-.2a.236.236,0,0,1,.12.291,10.2,10.2,0,0,0-.231,3.069,12,12,0,0,0,.632,3.009l.562,1.449c.216.5.456.933.682,1.4s.537.888.8,1.334a8.645,8.645,0,0,0,.938,1.239.231.231,0,0,1,0,.321A.246.246,0,0,1,132.683,244.495Z" transform="translate(-102.692 -144.267)" fill="#fdfdff"/>
        <path id="Path_768" data-name="Path 768" d="M137.7,257.1a1.1,1.1,0,0,1,.256.191.873.873,0,0,1,.191.251.2.2,0,0,1-.13.3.256.256,0,0,1-.135,0,.923.923,0,0,1-.276-.176.888.888,0,0,1-.186-.276.2.2,0,0,1,.15-.3A.291.291,0,0,1,137.7,257.1Z" transform="translate(-106.938 -156.563)" fill="#fdfdff"/>
        <path id="Path_769" data-name="Path 769" d="M139.4,258.728a1.119,1.119,0,0,1,.271.165.792.792,0,0,1,.216.231.2.2,0,0,1-.1.311.265.265,0,0,1-.14,0,.893.893,0,0,1-.291-.15.737.737,0,0,1-.206-.256.2.2,0,0,1,.12-.306A.231.231,0,0,1,139.4,258.728Z" transform="translate(-107.803 -157.376)" fill="#fdfdff"/>
        <path id="Path_770" data-name="Path 770" d="M141.217,260.167l1.1.637,1.1.622a.221.221,0,0,1,.115.3.236.236,0,0,1-.271.06,6.963,6.963,0,0,1-1.2-.542,8.068,8.068,0,0,1-1.073-.752c-.11-.105-.13-.246-.05-.321a.241.241,0,0,1,.276,0Z" transform="translate(-108.684 -158.078)" fill="#fdfdff"/>
        <path id="Path_771" data-name="Path 771" d="M147.751,263.487a.387.387,0,0,1,.2,0,.331.331,0,0,1,.16.11.226.226,0,0,1-.1.371h0a.356.356,0,0,1-.206,0,.4.4,0,0,1-.171-.11.226.226,0,0,1,.115-.366Z" transform="translate(-112.018 -159.748)" fill="#fdfdff"/>
        <path id="Path_772" data-name="Path 772" d="M150.212,264.136a.336.336,0,0,1,.2,0,.326.326,0,0,1,.171.085.226.226,0,0,1-.045.381h0a.386.386,0,0,1-.211,0,.361.361,0,0,1-.181-.09.221.221,0,0,1,.065-.376Z" transform="translate(-113.255 -160.07)" fill="#fdfdff"/>
        <path id="Path_773" data-name="Path 773" d="M333.609,87.6q-21.1,3.431-32.832,19.214c-7.3,9.6-5.733,21.958.5,31.563,5.733,9.148,16.677,12.353,27.084,14.64,29.18,6.861,55.763,15.548,83.378,24.245,11.987,3.656,26.081,9.148,36.483.913h0a3.255,3.255,0,0,0,1.214-3.225c-1.66-8.1-12.037-12.93-16.932-20.423-6.32-9.67,23.172-32.862,14.043-43.339s-27.741-1.851-40.731-5.241a18.282,18.282,0,0,1-5.016-2.4C377.6,98.382,359.238,83.631,333.609,87.6Z" transform="translate(-185.959 -71.751)" fill="#dbdffa"/>
        <path id="Path_774" data-name="Path 774" d="M355.28,171.672c-12.283,0-33.363-4.715-53.756-9.269-20.062-4.484-39.021-8.722-50.717-8.9h-.913c-9.62,0-23.784,2.307-38.78,4.745-17.294,2.814-36.894,6.019-52.1,6.019-14.981,0-23.473-3.009-25.96-9.208-3.847-9.575,1.826-13,9.68-17.725,6.3-3.792,13.447-8.1,14.334-16.511a62.609,62.609,0,0,0-.386-14.635c-.838-7.227-1.259-10.854,5.713-15.142,3.009-1.846,6.736-2.633,12.489-2.633,2.192,0,4.424.11,6.791.226s4.875.231,7.333.231c6.019,0,13.712-.647,20.062-5.7,1.239-1,2.428-1.946,3.581-2.879C223.763,71.3,231.793,64.8,258.571,61.536a35.292,35.292,0,0,1,4.243-.256c17.008,0,31.462,12.318,43.078,22.214C312.824,89.4,318.3,94.066,323.3,95.37a33.463,33.463,0,0,0,8.461.938c3.049,0,6.2-.261,9.249-.5s5.893-.5,8.647-.5c6.4,0,10.3,1.349,13.04,4.514,3.777,4.333-2.006,13.131-7.112,20.895-5.577,8.486-10.844,16.5-7.122,22.194,2.152,3.3,5.186,6.019,8.12,8.667,6.159,5.542,11.034,9.916,7.523,17.845C363.486,170.854,360.341,171.672,355.28,171.672Z" transform="translate(-104.161 -58.965)" fill="none" stroke="#dbdffa" stroke-miterlimit="10" stroke-width="0.97"/>
        <rect id="Rectangle_214" data-name="Rectangle 214" width="160.737" height="88.755" rx="3.85" transform="translate(73.064 48.759)" fill="#4056e3"/>
        <rect id="Rectangle_215" data-name="Rectangle 215" width="160.737" height="88.76" rx="3.85" transform="translate(70.255 45.409)" fill="#2b41cb"/>
        <path id="Path_956" data-name="Path 956" d="M2.12,0h156.5a2.12,2.12,0,0,1,2.12,2.12V86.635a2.12,2.12,0,0,1-2.12,2.12H2.12A2.12,2.12,0,0,1,0,86.635V2.12A2.12,2.12,0,0,1,2.12,0Z" transform="translate(67.446 42.058)" fill="#fdfdff" stroke="#4056e3" stroke-width="0.97"/>
        <path id="Path_775" data-name="Path 775" d="M226.6,154.788h10.282v-.607H226.6Zm-2.417.3h1.209V153.88H224.18ZM226.6,158.1h10.282v-.607H226.6Zm-2.417.3h1.209V157.19H224.18Zm2.417,3.009h10.282v-.6H226.6Zm-2.417.3h1.209V160.5H224.18Z" transform="translate(-150.198 -105.121)" fill="#ff4d62" fill-rule="evenodd"/>
        <g transform="matrix(1, 0, 0, 1, 0, -24.91)" filter="url(#Rectangle_218)">
          <rect id="Rectangle_218-2" data-name="Rectangle 218" width="45.651" height="44.257" rx="8" transform="translate(125.26 86.88)" fill="#fff"/>
        </g>
        <g transform="matrix(1, 0, 0, 1, 0, -24.91)" filter="url(#Rectangle_230)">
          <rect id="Rectangle_230-2" data-name="Rectangle 230" width="45.651" height="44.257" rx="8" transform="translate(74.23 86.88)" fill="#fff"/>
        </g>
        <g transform="matrix(1, 0, 0, 1, 0, -24.91)" filter="url(#Rectangle_219)">
          <rect id="Rectangle_219-2" data-name="Rectangle 219" width="45.651" height="44.257" rx="8" transform="translate(176.54 86.88)" fill="#fff"/>
        </g>
        <path id="Path_776" data-name="Path 776" d="M495,156.944l-.767-5.111a.291.291,0,0,0-.281-.246H492.58v-.637h1.379a.918.918,0,0,1,.9.782l.085.572,8.672.055-.893,4.012Zm.04-4.012.5,3.33,6.666-.476.612-2.8Z" transform="translate(-283.982 -103.661)" fill="#ff4d62"/>
        <path id="Path_777" data-name="Path 777" d="M505.058,163.72l-7.493-.04a.548.548,0,0,1-.542-.642l.146-.908.627.1-.13.813,7.393.045Z" transform="translate(-286.193 -109.233)" fill="#ff4d62"/>
        <path id="Path_778" data-name="Path 778" d="M500.218,167.013a.858.858,0,1,1-.855-.792A.858.858,0,0,1,500.218,167.013Z" transform="translate(-286.935 -111.272)" fill="none" stroke="#ff4d62" stroke-miterlimit="10" stroke-width="1.26"/>
        <path id="Path_779" data-name="Path 779" d="M509.165,167a.853.853,0,1,1-.246-.609.858.858,0,0,1,.246.609Z" transform="translate(-291.394 -111.232)" fill="none" stroke="#ff4d62" stroke-miterlimit="10" stroke-width="1.26"/>
        <line id="Line_19" data-name="Line 19" x2="45.867" transform="translate(125.045 109.286)" fill="#fff" stroke="#764582" stroke-linecap="round" stroke-linejoin="round" stroke-width="1.02"/>
        <path id="Path_780" data-name="Path 780" d="M374.044,235.108c0,.622-7.488,1.133-16.732,1.133s-16.732-.5-16.732-1.133S348.073,234,357.312,234,374.044,234.5,374.044,235.108Z" transform="translate(-208.218 -145.057)" fill="#a1abad" opacity="0.7"/>
        <path id="Path_781" data-name="Path 781" d="M347.39,212.323s.336-.848,3.265.266c1.585.6,3.656,2.056,7.689.3,0,0,1.224,4.073-3.907,3.716A8.526,8.526,0,0,1,347.39,212.323Z" transform="translate(-211.612 -134.098)" fill="#dd4026"/>
        <path id="Path_782" data-name="Path 782" d="M372.946,225.261l1.189.316c.677.356.642,2.157.08,2.708,0,0-4.8,2.809-18.868,3.049-8.09-.156-13.5-1.54-13.748-2.091a7.221,7.221,0,0,1-.221-2.648l1.5-1.775Z" transform="translate(-208.604 -140.481)" fill="#e2e2e2"/>
        <path id="Path_783" data-name="Path 783" d="M345.187,209.6a6.526,6.526,0,0,0-1.776,2.774,14.909,14.909,0,0,0-.381,4.514,37.7,37.7,0,0,0,12.163,1.871,78.8,78.8,0,0,0,13.075-.888c3.35-.6,6.671-1.394,6.671-1.394-.968-3.39-3.9-2.132-8.065-3.451-2.839-.9-9.595-6.475-9.595-6.475s-1.57,1.159-1.655,1.755c-.05.381.692,1.359.692,1.359a3.63,3.63,0,0,1-3.38,3.416C349.821,213.3,345.187,209.6,345.187,209.6Z" transform="translate(-209.409 -131.374)" fill="#fd6141"/>
        <path id="Path_784" data-name="Path 784" d="M374.156,226.33a18.412,18.412,0,0,1-6.2,2.422,72.419,72.419,0,0,1-13.748.828c-4.233-.165-12.8-2.232-12.8-2.232" transform="translate(-208.626 -141.234)" fill="none"/>
        <path id="Path_785" data-name="Path 785" d="M369.58,212.749a10.629,10.629,0,0,1,2.192.206c1.354.471,5.261,3.591,8.185,3.962" transform="translate(-222.673 -134.464)" fill="none" stroke="#efe9da" stroke-linecap="round" stroke-miterlimit="10" stroke-width="1.16"/>
        <path id="Path_786" data-name="Path 786" d="M377.13,211.747l-1.309,2.112c-.176.246-.958-.316-.777-.562l1.209-2.227C376.513,210.733,377.391,211.411,377.13,211.747Z" transform="translate(-225.383 -133.582)" fill="#e2e2e2"/>
        <path id="Path_787" data-name="Path 787" d="M380.745,213.993l-1.369,2.237c-.171.371-1.048,0-.878-.391l1.369-2.508C380.133,212.974,381.011,213.656,380.745,213.993Z" transform="translate(-227.107 -134.704)" fill="#e2e2e2"/>
        <path id="Path_788" data-name="Path 788" d="M384.532,216.242l-1.4,2.237c-.145.321-1-.08-.863-.4l1.374-2.508C383.915,215.239,384.792,215.9,384.532,216.242Z" transform="translate(-228.988 -135.825)" fill="#e2e2e2"/>
        <path id="Path_789" data-name="Path 789" d="M371.32,214.361a.5.5,0,1,1,1,.04l-.391,3.747c0,.537-.572.537-.572,0Z" transform="translate(-223.54 -135.028)" fill="#e2e2e2"/>
        <path id="Path_790" data-name="Path 790" d="M364.41,226.015a4.148,4.148,0,0,1,2.061-2.428c1.8-.843,6.064.757,8.426-.557a24.579,24.579,0,0,0,2.483-1.971" transform="translate(-220.096 -138.607)" fill="none" stroke="#efe9da" stroke-linecap="round" stroke-miterlimit="10" stroke-width="1.16"/>
        <path id="Path_791" data-name="Path 791" d="M344.68,216.19a11.76,11.76,0,0,1,3.711,2.628c.527.677,1.269,4.3,1.269,4.3" transform="translate(-210.261 -136.179)" fill="none" stroke="#efe9da" stroke-linecap="round" stroke-miterlimit="10" stroke-width="1.16"/>
        <path id="Path_792" data-name="Path 792" d="M269.229,235.108c0,.622-7.488,1.133-16.732,1.133s-16.727-.5-16.727-1.133S243.258,234,252.5,234,269.229,234.5,269.229,235.108Z" transform="translate(-155.975 -145.057)" fill="#a1abad" opacity="0.7"/>
        <path id="Path_793" data-name="Path 793" d="M242.57,212.323s.336-.848,3.265.266c1.59.6,3.656,2.056,7.689.3,0,0,1.229,4.073-3.907,3.716A8.526,8.526,0,0,1,242.57,212.323Z" transform="translate(-159.365 -134.098)" fill="#dd4026"/>
        <path id="Path_794" data-name="Path 794" d="M268.112,225.261l1.189.316c.677.356.642,2.157.085,2.708,0,0-4.8,2.809-18.873,3.049-8.09-.156-13.5-1.54-13.748-2.091a7.317,7.317,0,0,1-.221-2.648l1.5-1.775Z" transform="translate(-156.343 -140.481)" fill="#e2e2e2"/>
        <path id="Path_795" data-name="Path 795" d="M240.37,209.6a6.526,6.526,0,0,0-1.775,2.774,14.9,14.9,0,0,0-.376,4.514,37.663,37.663,0,0,0,12.163,1.871,78.7,78.7,0,0,0,13.07-.888c3.35-.6,6.671-1.394,6.671-1.394-.968-3.39-3.892-2.132-8.065-3.451-2.839-.9-9.595-6.475-9.595-6.475s-1.565,1.159-1.65,1.755c-.055.381.687,1.359.687,1.359a3.63,3.63,0,0,1-3.38,3.416C245,213.3,240.37,209.6,240.37,209.6Z" transform="translate(-157.165 -131.374)" fill="#ffd25a"/>
        <path id="Path_796" data-name="Path 796" d="M269.336,226.33a18.357,18.357,0,0,1-6.2,2.422,72.391,72.391,0,0,1-13.743.828c-4.238-.165-12.81-2.232-12.81-2.232" transform="translate(-156.379 -141.234)" fill="none"/>
        <path id="Path_797" data-name="Path 797" d="M264.76,212.749a10.692,10.692,0,0,1,2.2.206c1.349.471,5.256,3.591,8.185,3.962" transform="translate(-170.425 -134.464)" fill="none" stroke="#efe9da" stroke-miterlimit="10" stroke-width="1.16"/>
        <path id="Path_798" data-name="Path 798" d="M272.31,211.747l-1.3,2.112c-.181.246-.963-.316-.782-.562l1.209-2.227C271.693,210.733,272.571,211.411,272.31,211.747Z" transform="translate(-173.135 -133.582)" fill="#e2e2e2"/>
        <path id="Path_799" data-name="Path 799" d="M275.936,213.993l-1.369,2.237c-.166.371-1.043,0-.878-.391l1.369-2.508C275.34,212.974,276.2,213.656,275.936,213.993Z" transform="translate(-174.866 -134.704)" fill="#e2e2e2"/>
        <path id="Path_800" data-name="Path 800" d="M279.751,216.247l-1.389,2.247c-.145.321-1-.08-.858-.4l1.369-2.508C279.124,215.244,280,215.9,279.751,216.247Z" transform="translate(-176.769 -135.83)" fill="#e2e2e2"/>
        <path id="Path_801" data-name="Path 801" d="M266.5,214.361a.5.5,0,1,1,1,.04l-.391,3.747c0,.537-.567.537-.567,0Z" transform="translate(-171.293 -135.028)" fill="#e2e2e2"/>
        <path id="Path_802" data-name="Path 802" d="M259.6,226.015a4.128,4.128,0,0,1,2.056-2.428c1.8-.843,6.064.757,8.426-.557a24.776,24.776,0,0,0,2.508-1.971" transform="translate(-167.853 -138.607)" fill="none" stroke="#efe9da" stroke-miterlimit="10" stroke-width="1.16"/>
        <path id="Path_803" data-name="Path 803" d="M239.86,216.19a12.052,12.052,0,0,1,3.711,2.628c.532.677,1.269,4.3,1.269,4.3" transform="translate(-158.014 -136.179)" fill="none" stroke="#efe9da" stroke-miterlimit="10" stroke-width="1.16"/>
        <path id="Path_804" data-name="Path 804" d="M474.074,235.108c0,.622-7.493,1.133-16.732,1.133s-16.732-.5-16.732-1.133S448.1,234,457.357,234,474.074,234.5,474.074,235.108Z" transform="translate(-258.078 -145.057)" fill="#a1abad" opacity="0.7"/>
        <path id="Path_805" data-name="Path 805" d="M447.41,212.323s.336-.848,3.265.266c1.59.6,3.661,2.056,7.689.3,0,0,1.229,4.073-3.907,3.716A8.526,8.526,0,0,1,447.41,212.323Z" transform="translate(-261.467 -134.098)" fill="#3c8460"/>
        <path id="Path_806" data-name="Path 806" d="M472.952,225.261l1.189.316c.677.356.642,2.157.085,2.708,0,0-4.8,2.809-18.868,3.049-8.09-.156-13.5-1.54-13.748-2.091a7.2,7.2,0,0,1-.226-2.648l1.5-1.775Z" transform="translate(-258.445 -140.481)" fill="#e2e2e2"/>
        <path id="Path_807" data-name="Path 807" d="M445.21,209.6a6.483,6.483,0,0,0-1.77,2.774,14.752,14.752,0,0,0-.381,4.514,37.663,37.663,0,0,0,12.163,1.871,78.7,78.7,0,0,0,13.07-.888c3.35-.6,6.671-1.394,6.671-1.394-.968-3.39-3.892-2.132-8.065-3.451-2.839-.9-9.595-6.475-9.595-6.475s-1.565,1.159-1.65,1.755c-.055.381.692,1.359.692,1.359a3.637,3.637,0,0,1-3.385,3.416C449.849,213.3,445.21,209.6,445.21,209.6Z" transform="translate(-259.267 -131.374)" fill="#71bf9d"/>
        <path id="Path_808" data-name="Path 808" d="M474.176,226.33a18.357,18.357,0,0,1-6.2,2.422,72.342,72.342,0,0,1-13.743.828c-4.238-.165-12.81-2.232-12.81-2.232" transform="translate(-258.481 -141.234)" fill="none"/>
        <path id="Path_809" data-name="Path 809" d="M469.61,212.749a10.653,10.653,0,0,1,2.192.206c1.349.471,5.256,3.591,8.185,3.962" transform="translate(-272.532 -134.464)" fill="none" stroke="#efe9da" stroke-miterlimit="10" stroke-width="1.16"/>
        <path id="Path_810" data-name="Path 810" d="M477.15,211.747l-1.3,2.112c-.181.246-.963-.316-.782-.562l1.209-2.227C476.523,210.733,477.411,211.411,477.15,211.747Z" transform="translate(-275.237 -133.582)" fill="#e2e2e2"/>
        <path id="Path_811" data-name="Path 811" d="M480.742,213.993l-1.374,2.237c-.166.371-1.043,0-.878-.391l1.374-2.508C480.145,212.974,481.022,213.656,480.742,213.993Z" transform="translate(-276.948 -134.704)" fill="#e2e2e2"/>
        <path id="Path_812" data-name="Path 812" d="M484.571,216.247l-1.389,2.247c-.146.321-1-.08-.858-.4l1.369-2.508C483.954,215.244,484.831,215.9,484.571,216.247Z" transform="translate(-278.861 -135.83)" fill="#e2e2e2"/>
        <path id="Path_813" data-name="Path 813" d="M471.34,214.361a.5.5,0,0,1,1,.04l-.4,3.747c0,.537-.567.537-.567,0Z" transform="translate(-273.395 -135.028)" fill="#e2e2e2"/>
        <path id="Path_814" data-name="Path 814" d="M464.44,226.015a4.128,4.128,0,0,1,2.061-2.428c1.8-.843,6.064.757,8.421-.557a24.21,24.21,0,0,0,2.508-1.971" transform="translate(-269.956 -138.607)" fill="none" stroke="#efe9da" stroke-miterlimit="10" stroke-width="1.16"/>
        <path id="Path_815" data-name="Path 815" d="M444.71,216.19a11.994,11.994,0,0,1,3.706,2.628c.532.677,1.269,4.3,1.269,4.3" transform="translate(-260.121 -136.179)" fill="none" stroke="#efe9da" stroke-miterlimit="10" stroke-width="1.16"/>
        <path id="Path_816" data-name="Path 816" d="M334.431,196.091v.055c0,.256-.06.371-.211.371h-1.429c-.145,0-.211-.115-.211-.371v-.055c0-.261.065-.371.211-.371h1.455C334.371,195.72,334.431,195.83,334.431,196.091Z" transform="translate(-204.23 -125.976)" fill="#ff4d62"/>
        <path id="Path_817" data-name="Path 817" d="M340.877,191.214c0,1.033-.567,1.249-1.068,1.249s-1.068-.216-1.068-1.249.572-1.244,1.068-1.244S340.877,190.186,340.877,191.214Zm-1.409,0c0,.291.065.637.341.637s.336-.346.336-.637-.055-.607-.336-.607-.346.321-.346.607Zm3.4-1.1a.316.316,0,0,1-.035.105l-2.543,4.81a.331.331,0,0,1-.311.206h-.316c-.1,0-.145-.045-.145-.1a.231.231,0,0,1,.035-.11l2.538-4.81a.341.341,0,0,1,.316-.211h.311c.1,0,.171.045.171.105Zm.767,3.922c0,1-.567,1.244-1.068,1.244s-1.068-.216-1.068-1.244.572-1.249,1.068-1.249,1.063.206,1.063,1.249Zm-1.409,0c0,.286.065.637.341.637s.336-.351.336-.637-.055-.612-.336-.612-.346.321-.346.612Z" transform="translate(-207.301 -123.11)" fill="#ff4d62"/>
        <path id="Path_818" data-name="Path 818" d="M394.1,244.631v.5c.7,0,1.931.291,1.931.7,0,.181-.271.647-.391.647a4.128,4.128,0,0,0-1.54-.466v2.854c1.088.391,2.337.833,2.337,2.508a2.316,2.316,0,0,1-2.337,2.4v.612c0,.135-.075.2-.246.2s-.246-.06-.246-.2v-.6c-1.384-.035-2.423-.562-2.423-.893,0-.2.291-.662.426-.662a4.408,4.408,0,0,0,2.006.672v-3.17c-1.078-.416-2.262-.843-2.262-2.422,0-1.2.878-2.006,2.262-2.182v-.5c0-.135.075-.2.246-.2S394.1,244.5,394.1,244.631Zm-1.64,2.743c0,.7.5,1,1.149,1.294V246.04a1.264,1.264,0,0,0-1.164,1.334Zm1.64,5.492a1.455,1.455,0,0,0,1.224-1.5c0-.767-.552-1.134-1.224-1.429Z" transform="translate(-233.444 -150.256)" fill="#fba611"/>
        <rect id="Rectangle_220" data-name="Rectangle 220" width="23.518" height="4.238" rx="2.119" transform="translate(133.591 99.687)" fill="#fba611"/>
        <path id="Path_819" data-name="Path 819" d="M374.76,408.77H77.841a1.169,1.169,0,0,1-.727-2.081l44.463-35.52A5.517,5.517,0,0,1,125,369.99H327.614a5.517,5.517,0,0,1,3.426,1.179l44.463,35.52a1.169,1.169,0,0,1-.742,2.081Z" transform="translate(-76.675 -212.841)" fill="#4056e3" opacity="0.2"/>
        <path id="Path_820" data-name="Path 820" d="M375.912,380.951H81.29l45.686-36.493a5.307,5.307,0,0,1,3.325-1.149h196.6a5.307,5.307,0,0,1,3.325,1.149Z" transform="translate(-78.975 -199.542)" fill="#4056e3"/>
        <path id="Path_821" data-name="Path 821" d="M375.731,380.931H139.52l33.253-31.111h169.7Z" transform="translate(-108 -202.787)" fill="#2b41cb"/>
        <path id="Path_822" data-name="Path 822" d="M375.713,382.257H145.29l32.44-29.777H343.268Z" transform="translate(-110.876 -204.113)" fill="#fdfdff"/>
        <path id="Path_823" data-name="Path 823" d="M81.29,418.36H375.912v2.608a7.182,7.182,0,0,1-7.182,7.182H88.472a7.182,7.182,0,0,1-7.182-7.182Z" transform="translate(-78.975 -236.951)" fill="#2b41cb"/>
        <line id="Line_20" data-name="Line 20" x2="294.622" transform="translate(2.315 185.216)" fill="none" stroke="#fff" stroke-miterlimit="10" stroke-width="0.97"/>
        <rect id="Rectangle_221" data-name="Rectangle 221" width="45.095" height="5.146" rx="2.573" transform="translate(58.624 182.929)" fill="#ea9315"/>
        <rect id="Rectangle_222" data-name="Rectangle 222" width="45.095" height="4.569" rx="2.285" transform="translate(58.624 183.511)" fill="#fba611"/>
        <path id="Path_824" data-name="Path 824" d="M567.02,360.044l16.747,14.806h8.963v-1.179l-25.71-14.8Z" transform="translate(-321.086 -207.298)" fill="#9ba4d9"/>
        <path id="Path_825" data-name="Path 825" d="M567.02,358.87l16.747,14.8h8.963l-18.608-14.8Z" transform="translate(-321.086 -207.298)" fill="#b0b9ee"/>
        <ellipse id="Ellipse_46" data-name="Ellipse 46" cx="7.042" cy="3.064" rx="7.042" ry="3.064" transform="translate(34.419 155.574)" fill="#fff"/>
        <path id="Path_826" data-name="Path 826" d="M159.371,370.591c0,1.063-2.212,1.921-4.935,1.921s-4.935-.858-4.935-1.921,2.212-1.921,4.935-1.921S159.371,369.533,159.371,370.591Z" transform="translate(-112.974 -212.183)" fill="#ff4d62"/>
        <path id="Path_827" data-name="Path 827" d="M157.126,370.982c0,.361-.762.662-1.705.662s-1.7-.3-1.7-.662.762-.662,1.7-.662S157.126,370.616,157.126,370.982Z" transform="translate(-115.078 -213.005)" fill="#fff"/>
        <path id="Path_828" data-name="Path 828" d="M164.542,162.9a9.755,9.755,0,0,0-19.51,0h0c0,2.242-.672,3.706,9.755,22.419C165.254,166.516,164.532,164.049,164.542,162.9Z" transform="translate(-110.743 -104.752)" fill="#fba611"/>
        <path id="Path_829" data-name="Path 829" d="M160.208,173.077a4.3,4.3,0,1,1,3.048-1.26A4.308,4.308,0,0,1,160.208,173.077Z" transform="translate(-116.164 -110.395)" fill="#fdfdff"/>
        <path id="Path_830" data-name="Path 830" d="M433.06,258.44" transform="translate(-254.314 -157.239)" fill="#ffb072"/>
        <path id="Path_831" data-name="Path 831" d="M316.376,371.013l-3.962,6.851a2.1,2.1,0,0,0,2.006,3.069h38.915a2.127,2.127,0,0,0,2.157-2.743l-2.468-6.856a2.272,2.272,0,0,0-2.157-1.434H318.377A2.3,2.3,0,0,0,316.376,371.013Z" transform="translate(-194.045 -212.795)" fill="#2b41cb" opacity="0.2"/>
        <path id="Path_832" data-name="Path 832" d="M329.591,364.886a3.456,3.456,0,1,1-3.456-3.456A3.456,3.456,0,0,1,329.591,364.886Z" transform="translate(-199.296 -208.574)" fill="#4056e3"/>
        <circle id="Ellipse_47" data-name="Ellipse 47" cx="2.076" cy="2.076" r="2.076" transform="translate(124.764 154.235)" fill="#2b41cb"/>
        <path id="Path_833" data-name="Path 833" d="M326.773,364.181l1.184-3.125a.431.431,0,0,1,.4-.276h4.123a.431.431,0,0,1,.316.722l-3.711,4.012a1.169,1.169,0,0,1-1.214.316l-.371-.125a1.164,1.164,0,0,1-.727-1.525Z" transform="translate(-201.297 -208.25)" fill="#ffdcae"/>
        <circle id="Ellipse_48" data-name="Ellipse 48" cx="0.797" cy="0.797" r="0.797" transform="translate(126.043 155.514)" fill="#ff4d62"/>
        <path id="Path_834" data-name="Path 834" d="M376.38,364.886a3.456,3.456,0,1,0,3.456-3.456,3.456,3.456,0,0,0-3.456,3.456Z" transform="translate(-226.062 -208.574)" fill="#4056e3"/>
        <path id="Path_835" data-name="Path 835" d="M379.13,366.251a2.077,2.077,0,1,0,.606-1.471A2.076,2.076,0,0,0,379.13,366.251Z" transform="translate(-227.433 -209.94)" fill="#2b41cb"/>
        <path id="Path_836" data-name="Path 836" d="M379.9,364.181l-1.184-3.125a.431.431,0,0,0-.4-.276h-4.123a.431.431,0,0,0-.316.722l3.711,4.012a1.169,1.169,0,0,0,1.214.316l.371-.125a1.164,1.164,0,0,0,.727-1.525Z" transform="translate(-224.759 -208.25)" fill="#ffdcae"/>
        <circle id="Ellipse_49" data-name="Ellipse 49" cx="0.797" cy="0.797" r="0.797" transform="translate(152.976 155.514)" fill="#ff4d62"/>
        <path id="Path_837" data-name="Path 837" d="M299.275,290.387a.5.5,0,0,1-.471-.311c-1.174-2.708-3.125-7.127-3.476-7.684a69.941,69.941,0,0,0-8.025-2.944.5.5,0,0,1,0-.973l6.35-2.056a.5.5,0,0,1,.291,0c.607.166,5.968,1.65,7.122,2.723.913.853,3.616,6.48,4.148,7.6a.513.513,0,0,1-.928.436c-1.2-2.508-3.325-6.736-3.917-7.293-.717-.662-4.328-1.826-6.545-2.443l-4.71,1.5c3.28,1.088,6.671,2.3,7.022,2.789.426.567,3.085,6.7,3.611,7.919a.5.5,0,0,1-.266.672A.573.573,0,0,1,299.275,290.387Z" transform="translate(-181.473 -166.189)" fill="#ff4d62"/>
        <path id="Path_838" data-name="Path 838" d="M308.78,295.551l5.778-3.591,44.573,2.182,1.018,2.794Z" transform="translate(-192.367 -173.947)" fill="#fff" stroke="#ff4d62" stroke-linecap="round" stroke-linejoin="round" stroke-width="1.85"/>
        <path id="Path_839" data-name="Path 839" d="M307.94,299.3l6.746,22.249a1.535,1.535,0,0,0,1.5,1.093l37.31-1.154a1.545,1.545,0,0,0,1.449-1.179l4.77-19.716Z" transform="translate(-191.948 -177.605)" fill="#ff4d62"/>
        <path id="Path_840" data-name="Path 840" d="M326.969,308.843c2.412,5.016,7.744,6.019,12.82,5.778,10.9-.542,20.423-4.795,26.808-13.838l-39.688-1c-.587,0-.873,3.8-.9,4.293A9.725,9.725,0,0,0,326.969,308.843Z" transform="translate(-200.946 -177.845)" fill="#ff8976"/>
        <path id="Path_841" data-name="Path 841" d="M356.526,355.838a14.46,14.46,0,0,0-2.076-4.564,2.466,2.466,0,0,0-2.282-1h-30.9a1.574,1.574,0,0,1-1.645-2.513,33.684,33.684,0,0,1,1.73-3.822l-1.209.1a27.4,27.4,0,0,0-1.5,3.35,2.973,2.973,0,0,0,.03,2.839,2.941,2.941,0,0,0,2.573,1.068H322.9v.692a.772.772,0,0,0,.777.777h.592a.772.772,0,0,0,.777-.777v-.722h20.428v.692a.777.777,0,0,0,.782.777h.587a.777.777,0,0,0,.782-.777v-.692h4.514a1.532,1.532,0,0,1,1.46.612,13.579,13.579,0,0,1,1.906,4.208.953.953,0,0,1-.075.823,1.715,1.715,0,0,1-1.194.411c-7.162.16-22.6.075-30.9.025l-5.221-.025a3.081,3.081,0,0,1-2.638-1,2.814,2.814,0,0,1,.035-2.668c1-2.463,3.892-9.79,3.892-9.79l-.953-.376s-2.874,7.318-3.877,9.79a3.71,3.71,0,0,0,.065,3.626,4.02,4.02,0,0,0,3.486,1.465h2.909v.672a.782.782,0,0,0,.782.777h.592a.782.782,0,0,0,.777-.777v-.5l.15-.155c4.73.03,11.776.07,18.292.07h5.131v.6a.777.777,0,0,0,.777.777h.592a.777.777,0,0,0,.777-.777v-.612c2.046,0,3.877-.04,5.357-.07a2.588,2.588,0,0,0,2.006-.823A1.891,1.891,0,0,0,356.526,355.838Z" transform="translate(-195.048 -199.627)" fill="#ff4d62"/>
        <path id="Path_842" data-name="Path 842" d="M359.193,299.814l-4.624,19.059a1.209,1.209,0,0,1-1.134.918l-17.429.562q2.006-2.192,4.012-4.409c.1-.11.13-.246.07-.311s-.206-.03-.311.085q-2.152,2.217-4.268,4.474h0a.656.656,0,0,0-.11.171l-15.383.5c1.439-1.55,2.859-3.1,4.273-4.674.1-.115.135-.256.075-.321s-.206-.025-.316.1q-2.252,2.327-4.469,4.69h0a.617.617,0,0,0-.135.231l-1.389.04a1.214,1.214,0,0,1-1.194-.853l-3.069-10.121q1.194-1.294,2.347-2.613a.166.166,0,0,0,0-.226.161.161,0,0,0-.231,0q-1.144,1.149-2.257,2.332l-3.3-10.874-.5.145,6.52,21.507a1.71,1.71,0,0,0,1.64,1.214h.055l35.364-1.093a1.72,1.72,0,0,0,1.615-1.309l4.624-19.059Z" transform="translate(-192.9 -177.241)" fill="#fff"/>
        <path id="Path_843" data-name="Path 843" d="M322.944,314.19a2.108,2.108,0,0,0,.356-.311,1.942,1.942,0,0,0,.286-.381.184.184,0,0,0-.261-.246,2.111,2.111,0,0,0-.356.311,1.94,1.94,0,0,0-.286.381.176.176,0,0,0,0,.186.186.186,0,0,0,.261.06Z" transform="translate(-199.284 -184.546)" fill="#fff"/>
        <path id="Path_844" data-name="Path 844" d="M324.861,312.691a.211.211,0,0,0,.125-.06.181.181,0,0,0,.05-.13h0a.251.251,0,0,0-.266-.241.156.156,0,0,0-.12.06.171.171,0,0,0-.05.125h0a.256.256,0,0,0,.261.246Z" transform="translate(-200.252 -184.065)" fill="#fff"/>
        <path id="Path_845" data-name="Path 845" d="M333.313,300.422q1.565-1.59,3.085-3.21h0a.232.232,0,0,0-.341-.316q-1.5,1.635-3.009,3.3a.171.171,0,0,0,0,.226.161.161,0,0,0,.266,0Z" transform="translate(-204.442 -176.37)" fill="#fff"/>
        <path id="Path_846" data-name="Path 846" d="M332.291,304.751a.211.211,0,0,0,.125-.06.18.18,0,0,0,.05-.13h0a.251.251,0,0,0-.261-.241.166.166,0,0,0-.125.06.171.171,0,0,0-.05.125h0a.256.256,0,0,0,.261.246Z" transform="translate(-203.956 -180.107)" fill="#fff"/>
        <path id="Path_847" data-name="Path 847" d="M331.166,305.961a.2.2,0,0,0,.12-.06.181.181,0,0,0,.05-.13h0a.251.251,0,0,0-.261-.241.166.166,0,0,0-.125.06.171.171,0,0,0-.05.125h0a.256.256,0,0,0,.266.246Z" transform="translate(-203.393 -180.71)" fill="#fff"/>
        <path id="Path_848" data-name="Path 848" d="M330.036,307.171a.226.226,0,0,0,.125-.06.205.205,0,0,0,.05-.13h0a.261.261,0,0,0-.266-.241.176.176,0,0,0-.125.06.17.17,0,0,0-.05.125h0a.256.256,0,0,0,.266.246Z" transform="translate(-202.829 -181.314)" fill="#fff"/>
        <path id="Path_849" data-name="Path 849" d="M326.128,309.965a9.318,9.318,0,0,0,.747-.727,10.2,10.2,0,0,0,.672-.792.181.181,0,0,0,0-.226.186.186,0,0,0-.256,0,10.562,10.562,0,0,0-1.419,1.5.176.176,0,0,0,.256.241Z" transform="translate(-200.868 -182.026)" fill="#fff"/>
        <path id="Path_850" data-name="Path 850" d="M339.463,330.565c.04.1.186.1.326,0a6.882,6.882,0,0,0,.622-.587,6.972,6.972,0,0,0,.547-.662.326.326,0,0,0,.065-.261c-.045-.105-.191-.1-.331,0a6.926,6.926,0,0,0-.622.592,6.182,6.182,0,0,0-.542.657A.3.3,0,0,0,339.463,330.565Z" transform="translate(-207.657 -192.399)" fill="#fff"/>
        <path id="Path_851" data-name="Path 851" d="M343.285,327.83a.528.528,0,0,0,.2-.135.537.537,0,0,0,.12-.2h0c.045-.2-.07-.3-.266-.241a.567.567,0,0,0-.2.135.5.5,0,0,0-.12.206h0C342.969,327.79,343.089,327.9,343.285,327.83Z" transform="translate(-209.428 -191.53)" fill="#fff"/>
        <path id="Path_852" data-name="Path 852" d="M358.654,305.586q2.794-2.9,5.547-5.848h0c.161-.171.206-.376.115-.461s-.3,0-.456.145q-2.738,2.954-5.447,5.938c-.1.115-.14.256-.075.321S358.519,305.706,358.654,305.586Z" transform="translate(-217.054 -177.577)" fill="#fff"/>
        <path id="Path_853" data-name="Path 853" d="M356.721,313.408a.567.567,0,0,0,.2-.135.5.5,0,0,0,.12-.206h0c.045-.2-.075-.3-.271-.236a.559.559,0,0,0-.316.336h0C356.405,313.408,356.526,313.488,356.721,313.408Z" transform="translate(-216.124 -184.34)" fill="#fff"/>
        <path id="Path_854" data-name="Path 854" d="M354.718,315.638a.542.542,0,0,0,.321-.341h0c.045-.2-.075-.3-.266-.236a.456.456,0,0,0-.2.135.467.467,0,0,0-.12.206h0C354.382,315.592,354.5,315.7,354.718,315.638Z" transform="translate(-215.124 -185.452)" fill="#fff"/>
        <path id="Path_855" data-name="Path 855" d="M352.633,317.828a.456.456,0,0,0,.2-.135.5.5,0,0,0,.12-.206h0c.045-.2-.075-.3-.271-.236a.6.6,0,0,0-.2.135.637.637,0,0,0-.12.206h0C352.322,317.782,352.437,317.893,352.633,317.828Z" transform="translate(-214.087 -186.543)" fill="#fff"/>
        <path id="Path_856" data-name="Path 856" d="M345.533,322.848c.456-.426.888-.888,1.319-1.339s.853-.928,1.249-1.414c.09-.115.125-.246.075-.316s-.211-.055-.341.07c-.461.426-.888.888-1.324,1.339s-.848.928-1.244,1.414c-.1.115-.13.246-.08.316S345.4,322.973,345.533,322.848Z" transform="translate(-210.503 -187.792)" fill="#fff"/>
        <path id="Path_857" data-name="Path 857" d="M371.091,330.208a5.219,5.219,0,0,0,.592-.562,6.285,6.285,0,0,0,.5-.627.286.286,0,0,0,.055-.256c-.04-.105-.186-.1-.321,0a5.712,5.712,0,0,0-.592.562,6.228,6.228,0,0,0-.5.632.286.286,0,0,0-.055.256C370.81,330.318,370.956,330.318,371.091,330.208Z" transform="translate(-223.261 -192.253)" fill="#fff"/>
        <path id="Path_858" data-name="Path 858" d="M374.426,327.63a.5.5,0,0,0,.186-.125.527.527,0,0,0,.115-.2h0c.04-.191-.075-.3-.266-.241a.452.452,0,0,0-.186.125.472.472,0,0,0-.115.2h0C374.115,327.58,374.236,327.691,374.426,327.63Z" transform="translate(-224.951 -191.436)" fill="#fff"/>
        <path id="Path_859" data-name="Path 859" d="M389.06,306.394q2.663-2.769,5.3-5.577h0c.15-.161.2-.361.1-.446s-.291-.03-.441.13q-2.618,2.824-5.2,5.678c-.1.11-.13.246-.07.306S388.95,306.509,389.06,306.394Z" transform="translate(-232.212 -178.119)" fill="#fff"/>
        <path id="Path_860" data-name="Path 860" d="M387.258,313.9a.471.471,0,0,0,.191-.125.546.546,0,0,0,.115-.2h0c.04-.191-.08-.3-.266-.241a.5.5,0,0,0-.191.13.471.471,0,0,0-.115.2h0C386.952,313.847,387.073,313.957,387.258,313.9Z" transform="translate(-231.348 -184.594)" fill="#fff"/>
        <path id="Path_861" data-name="Path 861" d="M385.308,315.995a.5.5,0,0,0,.191-.13.441.441,0,0,0,.11-.2h0c.04-.191-.08-.3-.266-.236a.471.471,0,0,0-.191.125.547.547,0,0,0-.115.2h0C385.018,315.945,385.123,316.05,385.308,315.995Z" transform="translate(-230.376 -185.638)" fill="#fff"/>
        <path id="Path_862" data-name="Path 862" d="M383.352,318.08a.475.475,0,0,0,.3-.326h0c.04-.191-.08-.3-.271-.241a.5.5,0,0,0-.186.125.527.527,0,0,0-.115.2h0C383.036,318.03,383.161,318.136,383.352,318.08Z" transform="translate(-229.398 -186.676)" fill="#fff"/>
        <path id="Path_863" data-name="Path 863" d="M376.6,322.883c.441-.406.853-.843,1.264-1.279s.813-.883,1.189-1.349a.281.281,0,0,0,.09-.3c-.06-.08-.211-.055-.336.06-.436.411-.848.848-1.264,1.284s-.807.883-1.189,1.349a.281.281,0,0,0-.065.306C376.325,323.028,376.476,323,376.6,322.883Z" transform="translate(-226.007 -187.877)" fill="#fff"/>
        <path id="Path_864" data-name="Path 864" d="M334.95,364.76l1.816-6.43H356.03l1.048,6.43Z" transform="translate(-205.411 -207.029)" fill="#ff8976"/>
        <circle id="Ellipse_50" data-name="Ellipse 50" cx="4.063" cy="4.063" r="4.063" transform="translate(120.465 160.018)" fill="#4056e3"/>
        <path id="Path_865" data-name="Path 865" d="M324.975,381.383a2.443,2.443,0,1,1-2.443-2.443A2.443,2.443,0,0,1,324.975,381.383Z" transform="translate(-198.005 -217.302)" fill="#2b41cb"/>
        <path id="Path_866" data-name="Path 866" d="M321.677,378.942l1.394-3.671a.5.5,0,0,1,.471-.331h4.845a.5.5,0,0,1,.371.853l-4.358,4.695a1.364,1.364,0,0,1-1.429.366l-.436-.14a1.369,1.369,0,0,1-.858-1.77Z" transform="translate(-198.754 -215.308)" fill="#ffdcae"/>
        <path id="Path_867" data-name="Path 867" d="M324.966,382.878a.938.938,0,1,1-.938-.938A.938.938,0,0,1,324.966,382.878Z" transform="translate(-199.5 -218.797)" fill="#ff4d62"/>
        <circle id="Ellipse_51" data-name="Ellipse 51" cx="4.063" cy="4.063" r="4.063" transform="translate(151.491 160.018)" fill="#4056e3"/>
        <path id="Path_868" data-name="Path 868" d="M382,381.383a2.443,2.443,0,1,0,2.443-2.443A2.443,2.443,0,0,0,382,381.383Z" transform="translate(-228.863 -217.302)" fill="#2b41cb"/>
        <path id="Path_869" data-name="Path 869" d="M382.824,378.942l-1.389-3.671a.5.5,0,0,0-.476-.331h-4.84a.5.5,0,0,0-.371.853l4.368,4.695a1.364,1.364,0,0,0,1.429.366l.436-.14a1.364,1.364,0,0,0,.843-1.77Z" transform="translate(-225.675 -215.308)" fill="#ffdcae"/>
        <path id="Path_870" data-name="Path 870" d="M385,382.878a.933.933,0,1,0,.271-.663A.938.938,0,0,0,385,382.878Z" transform="translate(-230.359 -218.797)" fill="#ff4d62"/>
        <circle id="Ellipse_52" data-name="Ellipse 52" cx="9.188" cy="9.188" r="9.188" transform="translate(155.194 128.038) rotate(-76.82)" fill="#fba611"/>
        <path id="Path_871" data-name="Path 871" d="M406.989,288.166v8.11h1.54c.3,0,.431.216.431.717v.246c0,.5-.13.717-.431.717h-5.587c-.3,0-.431-.216-.431-.717v-.246c0-.5.13-.717.431-.717h1.916v-6.465l-1.956.286c-.376,0-.461-.807-.461-1.209a.391.391,0,0,1,.371-.4l3.586-.667C406.628,287.82,406.989,288,406.989,288.166Z" transform="translate(-239.052 -171.883)" fill="#272831"/>
        <path id="Path_872" data-name="Path 872" d="M334.71,283.742v7.237l17.093.446V283Z" transform="translate(-205.292 -169.481)" fill="#ffbe57"/>
        <path id="Path_873" data-name="Path 873" d="M368.79,283v8.426l8.145.261v-7.212Z" transform="translate(-222.279 -169.481)" fill="#f99441"/>
        <path id="Path_874" data-name="Path 874" d="M333.71,281.022l17.991-.732v2.352l-17.991.747Z" transform="translate(-204.793 -168.13)" fill="#ffd25a"/>
        <path id="Path_875" data-name="Path 875" d="M369.58,282.642l8.341,1.424V281.84l-8.341-1.55Z" transform="translate(-222.673 -168.13)" fill="#ffbe57"/>
        <ellipse id="Ellipse_53" data-name="Ellipse 53" cx="24.722" cy="1.424" rx="24.722" ry="1.424" transform="translate(65.184 162.586)" fill="#2b41cb" opacity="0.2"/>
        <path id="Path_876" data-name="Path 876" d="M279.713,347.3c.4,3.972,3.742,9.79,5.016,13.04.381.958,2.192.421,2.006-.587-.7-3.436-1.174-10.387-1.5-13.938C284.864,341.628,279.347,343.514,279.713,347.3Z" transform="translate(-177.87 -199.606)" fill="#ffb072"/>
        <path id="Path_877" data-name="Path 877" d="M289.755,376.05a3.7,3.7,0,0,0,.271,2.563c-.12.055-.03.547.186.647a5.418,5.418,0,0,0,2.458-.2.391.391,0,0,0,0-.331,3.745,3.745,0,0,0,1.76-.07,6.6,6.6,0,0,0,2.508-.948c.155-.1.05-.441-.125-.386,0,0-.11-.9-.868-.858a5.708,5.708,0,0,1-3.456-1,2.929,2.929,0,0,0-1.028-.451A1.76,1.76,0,0,0,289.755,376.05Z" transform="translate(-182.827 -215.345)" fill="#ed0c37"/>
        <g id="Group_221" data-name="Group 221" transform="translate(106.813 159.669)" clip-path="url(#clip-path)">
          <path id="Path_878" data-name="Path 878" d="M289.908,380.424a14.758,14.758,0,0,0,2.638-.04s2.969-.05,4.138-1.244a1.389,1.389,0,0,1,2.182.075l-4.86,3.872-3.175-.246-1.419-1.2S289.3,380.354,289.908,380.424Z" transform="translate(-289.521 -376.825)" fill="#ffaec1"/>
          <path id="Path_879" data-name="Path 879" d="M289.216,375.717a1.239,1.239,0,0,0,1.3.562c.873-.186.963-.727.762-1.66S288.3,374.3,289.216,375.717Z" transform="translate(-289.336 -374.595)" fill="#ffb072"/>
        </g>
        <path id="Path_881" data-name="Path 881" d="M253.548,287.794s5.713,10.277,7.619,14.475,4.278,14.545,4.278,14.545,4.695,1,7.157-1.214c0,0-.792-10.944-2.132-15.859s-6.43-16.978-6.43-16.978C261.974,278.46,251.5,283.466,253.548,287.794Z" transform="translate(-164.705 -168.542)" fill="#552f5e"/>
        <path id="Path_882" data-name="Path 882" d="M263.13,303.649a19.321,19.321,0,0,1,1.615-3.9c1-1.76,3.436-3.145,3.7-2.929.461.371-3.165,3.064-3.867,5.016,0,0,4.037-2.939,4.318-2.553S264.72,302.064,263.13,303.649Z" transform="translate(-169.613 -176.357)" fill="#3e2344"/>
        <path id="Path_883" data-name="Path 883" d="M261.8,238.183c.943,4.343,2.4,10.131,5.627,12.955s10.222,4.394,10.558,4.394c.777.181,1.61-3.932,1-4.409s-6.119-2.7-7.122-3.641c-1.75-1.685-1-11.947-2.984-14.184S260.7,233.123,261.8,238.183Z" transform="translate(-168.886 -144.26)" fill="#dd4026"/>
        <path id="Path_884" data-name="Path 884" d="M294.029,270.825s2.453,2.036,2.6,2.593a2.658,2.658,0,0,1-.115,1.7c-.2.236-1.7,1-2.272.592a9.9,9.9,0,0,1-1.359-1.289l.271-1s-.186.687-1.67-.246S292.62,269.416,294.029,270.825Z" transform="translate(-183.525 -163.219)" fill="#f29353"/>
        <path id="Path_885" data-name="Path 885" d="M221.274,344.344c-2.959,2.683-5.653,8.822-7.488,11.792-.542.873.963,2.006,1.65,1.249,2.347-2.6,7.659-7.117,10.327-9.479C228.882,345.121,224.092,341.791,221.274,344.344Z" transform="translate(-144.96 -199.603)" fill="#ffb072"/>
        <path id="Path_886" data-name="Path 886" d="M212.126,368.142a3.681,3.681,0,0,0-2.006,1.625c-.11-.07-.471.276-.441.5a5.483,5.483,0,0,0,1.5,1.951c.161,0,.271-.191.271-.191a3.651,3.651,0,0,0,1,1.439,6.656,6.656,0,0,0,2.162,1.59c.166.075.4-.206.256-.321,0,0,.7-.587.246-1.194a5.7,5.7,0,0,1-1.038-3.446,2.859,2.859,0,0,0-.186-1.108A1.761,1.761,0,0,0,212.126,368.142Z" transform="translate(-142.969 -211.91)" fill="#ed0c37"/>
        <g id="Group_222" data-name="Group 222" transform="translate(66.707 156.213)" clip-path="url(#clip-path-2)">
          <path id="Path_887" data-name="Path 887" d="M209.075,371.208a14.5,14.5,0,0,0,1.47,2.192s1.665,2.458,3.3,2.789a1.389,1.389,0,0,1,1.123,1.871l-5.893-1.966-1.5-2.794.231-1.841S208.789,370.656,209.075,371.208Z" transform="translate(-208.626 -369.564)" fill="#ffaec1"/>
          <path id="Path_888" data-name="Path 888" d="M214.042,367.3a1.229,1.229,0,0,0,.241,1.394c.632.632,1.128.411,1.806-.266S214.729,365.756,214.042,367.3Z" transform="translate(-211.794 -367.428)" fill="#ffb072"/>
        </g>
        <path id="Path_890" data-name="Path 890" d="M234.807,284.046s.792,15.047-.9,19.009a81.821,81.821,0,0,1-6.089,10.372,6.771,6.771,0,0,0,5.663,4.273s6.721-4.73,9.354-11.9,4.85-15.047,3.782-20.9C246.016,281.619,235.654,279.241,234.807,284.046Z" transform="translate(-152.013 -168.646)" fill="#764582"/>
        <path id="Path_891" data-name="Path 891" d="M237.411,286.47s.1,12.539-.5,17.4c-.567,4.715-7.809,13.381-7.809,13.381" transform="translate(-152.651 -171.21)" fill="none" stroke="#fff" stroke-miterlimit="10" stroke-width="0.5"/>
        <path id="Path_892" data-name="Path 892" d="M257.794,230.11c1.159,2.307-.908,11.074-.908,14.9a62.469,62.469,0,0,0,.968,10.287,1.219,1.219,0,0,1-.572,1.334,15.046,15.046,0,0,1-5.648,1.75c-5.673.547-8.411-.451-9.7-.938a1.575,1.575,0,0,1-1-1.705,36.521,36.521,0,0,0,.4-10.909c-.9-5.642-2.382-13.311.266-15.679s7.6-3.842,7.6-3.842S256.359,227.256,257.794,230.11Z" transform="translate(-158.132 -140.725)" fill="#fff"/>
        <path id="Path_893" data-name="Path 893" d="M256.474,209.225s-1.274-.216-3.009-2.382c-1.144-1.419-2.733-7.849,2.312-8.822s6.52,2.438,6.756,4.664-2.272,4.068-3.406,4.87S256.474,209.225,256.474,209.225Z" transform="translate(-164.21 -127.038)" fill="#3e2344"/>
        <path id="Path_894" data-name="Path 894" d="M255.456,215.36a14.861,14.861,0,0,1-.732,3.471,5.517,5.517,0,0,1-1.916,2.628c-.722.647,2.9,4.514,6.124,5.472,0,0,2.337-2.849,1.269-4.439s-1.926-1.73-1.54-3.852c.336-1.846.537-2.874.537-2.874Z" transform="translate(-164.421 -135.766)" fill="#ffb072"/>
        <path id="Path_895" data-name="Path 895" d="M256.323,208.7a3.155,3.155,0,0,0,.416,2.056,4.492,4.492,0,0,0,3.987,1.936c3.16-.231,1.936-5.251,1.936-5.251a11.268,11.268,0,0,0,0-3.511c-.331-1.585-3.466-2.417-6.019-1.64,0,0-.732.7-.451,3.812a.953.953,0,0,0-1.214-.16,1.416,1.416,0,0,0-.426,1.71C254.783,208.466,255.641,209.168,256.323,208.7Z" transform="translate(-165.289 -129.102)" fill="#ffb072" fill-rule="evenodd"/>
        <path id="Path_896" data-name="Path 896" d="M256.531,212.848l-.276-.737.471-.2s-.306-1.384-1.078-.873C255.011,211.464,255.739,213.129,256.531,212.848Z" transform="translate(-165.763 -133.554)" fill="#e57e55"/>
        <path id="Path_897" data-name="Path 897" d="M258.056,212.56a19.977,19.977,0,0,0-.266,2.819c.05.868.908,3.571,4.865,3.33s2.508-4.514,1.861-4.795a1.174,1.174,0,0,1-.391.938,1.053,1.053,0,0,0-1.269-.547,1.868,1.868,0,0,0-1.891.286l-.5.346a2.508,2.508,0,0,1-2.006-2.322Z" transform="translate(-166.951 -134.37)" fill="#3e2344"/>
        <path id="Path_898" data-name="Path 898" d="M265.11,217.44a10.762,10.762,0,0,1,2.132.145c.05.145-.251.421-1.063.421a1.124,1.124,0,0,1-1.068-.567Z" transform="translate(-170.6 -136.802)" fill="#fff"/>
        <path id="Path_899" data-name="Path 899" d="M265,217.34c.11-.06.1,0,.13-.03h.507l.587.025a2.866,2.866,0,0,1,.582.04,2.057,2.057,0,0,1,.291.045.219.219,0,0,1,.075.025.09.09,0,0,1,.055.09.231.231,0,0,1-.08.145,1.69,1.69,0,0,1-1.134.281,1.289,1.289,0,0,1-.577-.155,1.079,1.079,0,0,1-.251-.176l-.105-.11-.045-.065v-.035h0A.312.312,0,0,1,265,217.34Zm.115.075v-.06h0v.03l.035.055a.6.6,0,0,0,.085.105.793.793,0,0,0,.216.171,1.168,1.168,0,0,0,.532.155,1.67,1.67,0,0,0,1.083-.236c.186-.186-.14-.15-.306-.181s-.386,0-.577-.03H265.1S265.055,217.476,265.115,217.415Z" transform="translate(-170.545 -136.738)" fill="#e57e55"/>
        <path id="Path_900" data-name="Path 900" d="M264.653,211.959c0,.176-.241.191-.5.166s-.5-.075-.5-.251.256-.3.537-.276S264.668,211.8,264.653,211.959Z" transform="translate(-169.872 -133.889)" fill="#3e2344"/>
        <path id="Path_901" data-name="Path 901" d="M261.94,209.981A9.139,9.139,0,0,1,263,209.73a6.521,6.521,0,0,0,1.3.065,1.43,1.43,0,0,0,.145-.421,11.037,11.037,0,0,0-1.59-.06A1.856,1.856,0,0,0,261.94,209.981Z" transform="translate(-169.02 -132.749)" fill="#3e2344"/>
        <path id="Path_902" data-name="Path 902" d="M269.768,212.389c0,.176-.246.191-.527.166s-.5-.075-.5-.251.256-.3.537-.276S269.783,212.213,269.768,212.389Z" transform="translate(-172.409 -134.104)" fill="#3e2344"/>
        <path id="Path_903" data-name="Path 903" d="M269.92,210.5c0,.025-.346-.416-.5-.451s-1,.04-1.058-.065a2.043,2.043,0,0,1-.04-.436,7.227,7.227,0,0,1,1.3.191A1.264,1.264,0,0,1,269.92,210.5Z" transform="translate(-172.2 -132.87)" fill="#3e2344"/>
        <path id="Path_904" data-name="Path 904" d="M267.277,215.257s-.652,0-.637-.2,1.374-.376,1.45-.246S267.568,215.177,267.277,215.257Z" transform="translate(-171.362 -135.472)" fill="#e57e55" opacity="0.5"/>
        <path id="Path_905" data-name="Path 905" d="M268.019,210.35a3.238,3.238,0,0,0-.09,1.108c.1.3.692.958.7,1.093s-.672.5-.722.5.978-.135.948-.456-.8-1.123-.823-1.279S268.019,210.35,268.019,210.35Z" transform="translate(-171.994 -133.268)" fill="#e57e55"/>
        <path id="Path_906" data-name="Path 906" d="M256.948,205.031a3.074,3.074,0,0,0,.181-2.443,1.409,1.409,0,0,1,1.043-1.826c.647-.07,2.738.5,3.566.421,1.811-.221,3.215-.757,3.215-1.093s-1.329,0-1.329,0,2.006-.5,1.836-2.207a8.331,8.331,0,0,1-2.874-.351c-1.359-.466-4.609-1-6.335.276-1.133.843-1.936,3.576-.436,4.97C256.5,203.446,256.556,205.312,256.948,205.031Z" transform="translate(-165.557 -126.621)" fill="#3e2344"/>
        <path id="Path_907" data-name="Path 907" d="M267.585,235s-.863,17.158-.672,18.773-.125,7.814,3.792,9.028c0,0-1.75-8.953-1.5-14.329S267.585,235,267.585,235Z" transform="translate(-171.485 -145.555)" fill="#a1abad" fill-rule="evenodd" opacity="0.7"/>
        <path id="Path_908" data-name="Path 908" d="M265.79,227.21a43.7,43.7,0,0,1,1.61,12.373c-.09,7.022-.376,21.371,4.8,21.04,0,0-2.182-8.827-2.051-12.037s1.871-14.991,1.234-17.008C270.444,228.654,265.79,227.21,265.79,227.21Z" transform="translate(-170.939 -141.672)" fill="#fd6141"/>
        <path id="Path_909" data-name="Path 909" d="M246.274,226.7s3.511,5.472,4.614,14.741c.532,4.419-.065,11.42-.732,15.889-.767,5.146-10.844,5.136-11.491,3.787s2.242-9.9,1.339-14.756-1.429-12.785-.356-15.4S246.274,226.7,246.274,226.7Z" transform="translate(-157.371 -141.418)" fill="#fd6141"/>
        <path id="Path_910" data-name="Path 910" d="M243.745,245.22s1.715,8.271,1.5,12.649-1.61,13.221-1.61,13.221" transform="translate(-159.898 -150.649)" fill="none" stroke="#fff" stroke-linecap="round" stroke-linejoin="round" stroke-width="0.5"/>
        <path id="Path_911" data-name="Path 911" d="M241,234.975a8.094,8.094,0,0,0-.456,2.162c.943,7.212,5.016,15.3,11.23,18.2q.323-3.5.3-7.022a51.161,51.161,0,0,1-9.79-14.906A4.152,4.152,0,0,0,241,234.975Z" transform="translate(-158.353 -144.763)" fill="#dd4026"/>
        <path id="Path_912" data-name="Path 912" d="M288.047,274.021s3.1.727,3.486,1.159a5.359,5.359,0,0,1,.938,2.2,3.8,3.8,0,0,1-2.407.853,5.3,5.3,0,0,1-1.434-.5c.1-.366.075-.7-.306-.818s-.833.1-1.535.411C285.188,278.064,286.156,273.389,288.047,274.021Z" transform="translate(-181.003 -164.976)" fill="#ffb072"/>
        <path id="Path_913" data-name="Path 913" d="M240.281,237.622c.838,4.624,6.756,11.536,9.289,13.7,2.222,1.906,13.186,5.141,13.667,5.166,1.123.236,2.553-3.807,1.68-4.328s-10.643-5.016-11.7-6.194-4.94-11.631-7.7-14.018S239.338,232.4,240.281,237.622Z" transform="translate(-158.144 -143.608)" fill="#ff8976"/>
        <path id="Path_914" data-name="Path 914" d="M584.984,220.914c4.514-6.475,9.128-5.071,10.829-2.337s.5,6.781-3.069,10.136c-2.543,2.548-7.639,4.323-11.731,5.3-2.859-3.08-6.109-7.383-6.811-10.919-1.088-4.755.141-8.812,3.07-10.136S584.839,213.034,584.984,220.914Z" transform="translate(-324.47 -134.348)" fill="#ff4d62" fill-rule="evenodd"/>
        <g id="Group_223" data-name="Group 223" transform="translate(250.439 81.94)" opacity="0.5">
          <path id="Path_915" data-name="Path 915" d="M596.906,222.325c-1.455-2.332-5.046-3.7-8.862,0,3.25-2.563,7.909-2.613,8.316,2.076a6.681,6.681,0,0,1-8.06,7.428c-5.958-1.128-4.514-6.129-7.328-8.577-2.217-1.866-4.84.953-4.96,3.26a14,14,0,0,0,.236,3.09,35.068,35.068,0,0,0,5.858,8.165c4.093-.973,9.188-2.749,11.731-5.3C597.383,229.106,598.612,225.034,596.906,222.325Z" transform="translate(-576.003 -220.036)" fill="#ed4863" fill-rule="evenodd"/>
        </g>
        <ellipse id="Ellipse_54" data-name="Ellipse 54" cx="24.722" cy="1.424" rx="24.722" ry="1.424" transform="translate(180.812 162.09)" fill="#2b41cb" opacity="0.2"/>
        <path id="Path_916" data-name="Path 916" d="M490.816,371.34a14.314,14.314,0,0,1,1.2,1.149c.171.251.828,2.122.828,2.122a1.6,1.6,0,0,1-1,.712l-.833-1.073a10.563,10.563,0,0,1-.858,2.483c-.5.732-3.511,1.58-3.937,1.359a1.319,1.319,0,0,1,.386-1.69,4.484,4.484,0,0,0,1.76-3.421,1.625,1.625,0,0,1,2.458-1.64Z" transform="translate(-280.728 -213.393)" fill="#fd6141"/>
        <g id="Group_224" data-name="Group 224" transform="translate(205.324 157.705)" clip-path="url(#clip-path-3)">
          <path id="Path_917" data-name="Path 917" d="M485.62,379.3c.05-.03,3.807-.537,4.253-1.645.346-.868.577-2.327.777-2.508s1.148-1.294,1.148-1.294l1.5,2.618-5.658,4.76Z" transform="translate(-485.837 -372.47)" fill="#dd4026"/>
        </g>
        <path id="Path_919" data-name="Path 919" d="M489.061,378.709l.5.105a1.71,1.71,0,0,0,.331-.948l-.5-.176a.176.176,0,0,0-.221.105l-.251.677a.181.181,0,0,0,.14.236Z" transform="translate(-282.153 -216.675)" fill="#f7b614"/>
        <path id="Path_920" data-name="Path 920" d="M477.815,264.137c0-.181-4.77,21-4.6,26.693.105,3.546,6.741,19.871,8.717,26.773.381,1.324,2.443-.231,2.277-1.605a196.371,196.371,0,0,0-3.641-24.431c-.451-2.232,7.568-22.264,6.931-26.958S480.323,257.361,477.815,264.137Z" transform="translate(-274.327 -158.016)" fill="#ffb072"/>
        <path id="Path_921" data-name="Path 921" d="M487.514,264.609c-.632-4.695-7.177-7.247-9.685-.471,0-.171-4.318,18.989-4.589,25.755,2.142-1.625,4.985-.767,7.443.5C481.646,285.528,488.086,268.842,487.514,264.609Z" transform="translate(-274.342 -158.016)" fill="#ffbe57" opacity="0.5"/>
        <path id="Path_922" data-name="Path 922" d="M503.064,373.664a14.052,14.052,0,0,1,.707,1.5c.07.3.025,2.272.025,2.272a1.57,1.57,0,0,1-1.219.3l-.4-1.294a5.416,5.416,0,0,1-1.229,1.68,8.269,8.269,0,0,1-3.852.9s-.617-1.189.371-1.69c2.468-1.269,2.688-3.009,2.688-3.009a1.625,1.625,0,0,1,2.9-.662Z" transform="translate(-286.14 -214.343)" fill="#fd6141"/>
        <g id="Group_225" data-name="Group 225" transform="translate(210.77 158.661)" clip-path="url(#clip-path-4)">
          <path id="Path_923" data-name="Path 923" d="M496.68,381.057c.06,0,3.1-.3,3.827-.878s1.369-1.971,1.62-2.061,1.5-.8,1.5-.8l.5,2.979-6.982,2.438Z" transform="translate(-496.796 -375.155)" fill="#dd4026"/>
        </g>
        <path id="Path_925" data-name="Path 925" d="M500.5,379.178l.441.286a1.735,1.735,0,0,0,.647-.772l-.406-.341a.176.176,0,0,0-.246,0l-.471.542a.181.181,0,0,0,.035.286Z" transform="translate(-287.885 -216.983)" fill="#f7b614"/>
        <path id="Path_926" data-name="Path 926" d="M491.747,265.453c-.035,1.846.246,21.507,1.951,26.888,1.058,3.355,3.29,19.45,4.042,24.952.276,2.006,2.453,2.006,2.613.09.587-7.122,2.889-17.028.276-25.735-.657-2.172,2.372-24.621.5-28.894S491.873,258.621,491.747,265.453Z" transform="translate(-283.565 -157.952)" fill="#ffb072"/>
        <path id="Path_927" data-name="Path 927" d="M500.534,290.167c.06-5.552,2.257-23.648.592-27.44-1.876-4.278-9.239-4.118-9.379,2.7-.035,1.7.206,18.487,1.57,25.343A9.5,9.5,0,0,1,500.534,290.167Z" transform="translate(-283.565 -157.94)" fill="#ffbe57" opacity="0.5"/>
        <path id="Path_928" data-name="Path 928" d="M477.681,258.648l-.211,1.931s-3.461,8.767-4.95,23c3.691-1,10.658,2.387,20.99.938,0,0,4.083-18.226-3.009-26.332S478.057,254.355,477.681,258.648Z" transform="translate(-273.983 -154.829)" fill="#fd6141"/>
        <path id="Path_929" data-name="Path 929" d="M482.837,266.331s-.276,2.728,4.444,3.21,9.4-2.929,9.289-3.932S482.837,266.331,482.837,266.331Z" transform="translate(-279.124 -160.656)" fill="#dd4026"/>
        <path id="Path_930" data-name="Path 930" d="M506.07,264.67s5.407,8.993,2.081,25.047" transform="translate(-290.706 -160.344)" fill="none" stroke="#fff" stroke-linecap="round" stroke-miterlimit="10" stroke-width="0.5"/>
        <path id="Path_931" data-name="Path 931" d="M439.384,253.346a18.134,18.134,0,0,0-2.332-.03,12.1,12.1,0,0,0-1.349.592c-.542.271,0,.662.4.622a7.184,7.184,0,0,1,1.038-.115,2.108,2.108,0,0,1,.351.09,8.342,8.342,0,0,1-1.791,1.068c-.381.15-.732.251-1.289.431-.246.08-.206.406.075.456a3.391,3.391,0,0,0,1.5-.186,6.566,6.566,0,0,0,.7-.3,4.916,4.916,0,0,1-.762.441c-.366.165-.732.236-1.264.431-.246.09-.181.371.105.411a2.438,2.438,0,0,0,.406.025c-.1.13-.03.331.2.361a2.541,2.541,0,0,0,.6-.05.241.241,0,0,0,.216.14c2.006,0,3.185-1.083,4.273-1.339C442.188,254.65,440.683,253.592,439.384,253.346Z" transform="translate(-254.906 -154.673)" fill="#ffb072"/>
        <path id="Path_932" data-name="Path 932" d="M468.181,224.561c-1.354-.772-3.666-1-5.487,1.575s-2.628,8.7-4.559,10.768c-1.154,1.234-11.611,1.59-12.358,1.961-.5.241-.2,2.573-.035,3.009.331.9,11.656,1.384,14.736.171S471.09,226.211,468.181,224.561Z" transform="translate(-260.515 -140.092)" fill="#552f5e"/>
        <path id="Path_933" data-name="Path 933" d="M481.292,196.283a6.441,6.441,0,0,1,1.209-3.892c1.128-1.384,5.517-2.733,7.834-1.139,2.834,1.966,1.911,3.8,5.447,5.231s2.463,3.009,1.455,4.619-.657,1.886,1,3.576,3.8,5.913,0,8.321-12.037.828-15.332-2.347.592-5.271-.321-7.167-2.006-1.475-2.006-3.511C480.565,198.47,481.157,197.758,481.292,196.283Z" transform="translate(-278 -123.389)" fill="#3e2344"/>
        <path id="Path_934" data-name="Path 934" d="M488.5,220.51s-7.5,1.254-7.749,3.541c-.105.958,1.2,2.894.863,3.877-.5,1.434-1.279,2.267.171,5.678,1.174,2.754-.838,8.461-.777,9.138.231,2.538,4.253,3.009,5.9,2.964,2.357-.055,9.123-1.57,9.123-3.054,0-1.284-3.135-4.048-3.436-6.254s5.432-11.034,4.293-12.955C494.687,219.717,488.5,220.51,488.5,220.51Z" transform="translate(-278.084 -138.297)" fill="#764582"/>
        <path id="Path_935" data-name="Path 935" d="M506.557,267.7a17.413,17.413,0,0,0-2.232.687,11.383,11.383,0,0,0-1.1.973c-.431.426.186.637.567.477a6.993,6.993,0,0,1,.953-.431,1.819,1.819,0,0,1,.361,0,8.634,8.634,0,0,1-1.374,1.565c-.321.261-.622.461-1.1.8-.211.15-.07.451.216.416a3.435,3.435,0,0,0,1.359-.637c.2-.16.4-.331.577-.5a5.076,5.076,0,0,1-.592.647c-.3.271-.627.446-1.073.8-.206.16-.055.411.231.366a1.934,1.934,0,0,0,.391-.105c-.055.155.07.326.3.286a2.793,2.793,0,0,0,.562-.231.256.256,0,0,0,.246.065A9.679,9.679,0,0,0,508.5,270.3C509.621,268.085,507.866,267.543,506.557,267.7Z" transform="translate(-288.94 -161.843)" fill="#ffb072"/>
        <path id="Path_936" data-name="Path 936" d="M505.84,222.514c-1.209.978-2.292,3.039-.547,5.683s6.721,5.4,7.924,7.985c.727,1.5-6.019,8.06-6.019,8.893a6,6,0,0,0,1.755,3.1c.863.416,10.307-8.747,10.307-12.037S508.443,220.412,505.84,222.514Z" transform="translate(-289.864 -139.213)" fill="#764582"/>
        <path id="Path_937" data-name="Path 937" d="M493.495,209.05a15,15,0,0,0,.727,3.466,5.582,5.582,0,0,0,1.921,2.633c.722.647-2.9,4.514-6.124,5.472,0,0-2.342-2.854-1.269-4.439s1.921-1.73,1.54-3.852c-.336-1.846-.537-2.874-.537-2.874Z" transform="translate(-281.933 -132.62)" fill="#ffb072"/>
        <path id="Path_938" data-name="Path 938" d="M486.768,209.45c0,.908-.371,1.65-.833,1.65s-.833-.742-.833-1.65a2.232,2.232,0,0,1,.426-1.434c.08-.1,0-.181-.1-.075a2.352,2.352,0,0,0-.451,1.5c0,1,.421,1.775.958,1.775s.958-.767.958-1.77a2.438,2.438,0,0,0-.266-1.244c0,.025-.075.065-.1.09A2.508,2.508,0,0,1,486.768,209.45Z" transform="translate(-280.191 -132.043)" fill="#fff"/>
        <path id="Path_939" data-name="Path 939" d="M491.947,202.387s-.5,3.962-4.243,3.681c-1.871-.14-2.824-3.977-2.1-4.94a11.1,11.1,0,0,1,0-3.511c.331-1.585,3.466-2.417,6.019-1.64,0,0,.732.7.451,3.812a.948.948,0,0,1,1.209-.16,1.411,1.411,0,0,1,.431,1.71C493.481,202.151,492.629,202.863,491.947,202.387Z" transform="translate(-280.384 -125.957)" fill="#ffb072" fill-rule="evenodd"/>
        <path id="Path_940" data-name="Path 940" d="M498.8,206.538l.276-.742-.477-.2s.311-1.384,1.083-.873C500.305,205.144,499.6,206.814,498.8,206.538Z" transform="translate(-286.982 -130.409)" fill="#e57e55"/>
        <path id="Path_941" data-name="Path 941" d="M499.6,209.45c0,.908-.371,1.65-.833,1.65s-.838-.742-.838-1.65a2.232,2.232,0,0,1,.431-1.434c.075-.1-.025-.181-.1-.075a2.322,2.322,0,0,0-.451,1.5c0,1,.421,1.775.958,1.775s.958-.782.958-1.775a2.438,2.438,0,0,0-.266-1.244c0,.025-.075.065-.1.09A2.593,2.593,0,0,1,499.6,209.45Z" transform="translate(-286.585 -132.043)" fill="#fff"/>
        <path id="Path_942" data-name="Path 942" d="M488.07,211.006s.256-.617,2.207-.416C490.041,211.623,488.225,212.135,488.07,211.006Z" transform="translate(-281.734 -133.368)" fill="#fd6141"/>
        <g id="Group_226" data-name="Group 226" transform="translate(206.336 77.222)">
          <path id="Path_943" data-name="Path 943" d="M488.07,211.046a6.585,6.585,0,0,0,2.207-.416" transform="translate(-488.07 -210.63)" fill="#e57e55"/>
          <path id="Path_944" data-name="Path 944" d="M488.07,211.046a16.306,16.306,0,0,0,2.207-.416A3.4,3.4,0,0,1,489.2,211,4.086,4.086,0,0,1,488.07,211.046Z" transform="translate(-488.07 -210.63)" fill="#e57e55"/>
        </g>
        <path id="Path_945" data-name="Path 945" d="M485.879,206.078c0,.176.241.191.527.166s.5-.075.5-.251-.256-.3-.537-.276S485.864,205.9,485.879,206.078Z" transform="translate(-280.642 -130.957)" fill="#3e2344"/>
        <path id="Path_946" data-name="Path 946" d="M484.71,204.212c0,.025.652-.562.833-.552s.833.256.9.161a1.3,1.3,0,0,0,.125-.291,5.014,5.014,0,0,0-1.123-.11A2.007,2.007,0,0,0,484.71,204.212Z" transform="translate(-280.059 -129.814)" fill="#3e2344"/>
        <path id="Path_947" data-name="Path 947" d="M491,205.638c0,.176.246.191.527.166s.5-.075.5-.251-.251-.3-.532-.276S491,205.467,491,205.638Z" transform="translate(-283.194 -130.738)" fill="#3e2344"/>
        <path id="Path_948" data-name="Path 948" d="M492.032,203.242a4.71,4.71,0,0,0-1.093-.286c-.221.055-.933.416-1.028.341a1.193,1.193,0,0,1-.2-.256A7.834,7.834,0,0,1,491,202.7,2.006,2.006,0,0,1,492.032,203.242Z" transform="translate(-282.551 -129.455)" fill="#3e2344"/>
        <path id="Path_949" data-name="Path 949" d="M487.946,208.944s.652,0,.637-.2-1.374-.371-1.449-.246S487.655,208.864,487.946,208.944Z" transform="translate(-281.264 -132.324)" fill="#e57e55" opacity="0.5"/>
        <path id="Path_950" data-name="Path 950" d="M487.706,204a3.242,3.242,0,0,1,.09,1.108c-.1.3-.692.953-.707,1.093s.677.5.727.5-1-.135-.948-.456.792-1.123.823-1.284S487.706,204,487.706,204Z" transform="translate(-281.134 -130.103)" fill="#e57e55"/>
        <path id="Path_951" data-name="Path 951" d="M489.236,194.481c-3.1.326-4.479,3.245-6.746,3.25-1.409-2.443,2.889-8.647,7.955-3.832,2.327,2.207.231,3.9.231,3.9l-.5,1.786a3.334,3.334,0,0,0-.431-1.851,2.919,2.919,0,0,1-.507-3.25Z" transform="translate(-278.818 -124.181)" fill="#3e2344"/>
        <path id="Path_952" data-name="Path 952" d="M411.722,155.128l-31.869-7.839h0l-4.012-1a2.924,2.924,0,0,0-3.541,2.142l-3.165,12.865h0l-.181.732-1.449,5.878a2.924,2.924,0,0,0,2.142,3.541l35.329,8.7A2.924,2.924,0,0,0,408.517,178l.421-1.72h0l1.2-4.9h0l1.76-7.142h0l1.55-6.294A2.342,2.342,0,0,0,411.722,155.128Z" transform="translate(-221.596 -101.293)" fill="#764582" opacity="0.3"/>
        <rect id="Rectangle_223" data-name="Rectangle 223" width="42.236" height="25.91" rx="5.83" transform="matrix(0.971, 0.239, -0.239, 0.971, 150.811, 43.168)" fill="#ffbe57"/>
        <path id="Path_953" data-name="Path 953" d="M380.2,152.109c-1.2,3.2-.8,7.614,2.4,9.214,11.481,6.841,23.708,6.234,34.773,1.725l1.535-6.294a2.342,2.342,0,0,0-1.71-2.829L385.33,146.08A12.969,12.969,0,0,0,380.2,152.109Z" transform="translate(-227.655 -101.233)" fill="#ffd25a"/>
        <rect id="Rectangle_224" data-name="Rectangle 224" width="42.236" height="5.046" transform="matrix(0.971, 0.239, -0.239, 0.971, 146.945, 58.873)" fill="#2b41cb"/>
        <rect id="Rectangle_225" data-name="Rectangle 225" width="15.112" height="2.523" rx="1.261" transform="matrix(0.971, 0.239, -0.239, 0.971, 151.797, 46.326)" fill="#4056e3"/>
        <rect id="Rectangle_226" data-name="Rectangle 226" width="26.331" height="1.259" rx="0.629" transform="matrix(0.971, 0.239, -0.239, 0.971, 150.891, 50.003)" fill="#4056e3"/>
        <rect id="Rectangle_227" data-name="Rectangle 227" width="2.473" height="1.775" rx="0.888" transform="translate(169.429 59.884) rotate(13.82)" fill="#fff"/>
        <rect id="Rectangle_228" data-name="Rectangle 228" width="2.473" height="1.775" rx="0.888" transform="matrix(0.971, 0.239, -0.239, 0.971, 172.462, 60.664)" fill="#fff"/>
        <rect id="Rectangle_229" data-name="Rectangle 229" width="2.473" height="1.775" rx="0.888" transform="matrix(0.971, 0.239, -0.239, 0.971, 175.519, 61.418)" fill="#fff"/>
        <path id="Path_954" data-name="Path 954" d="M438.268,163.912a2.741,2.741,0,1,0-.9,3.656,2.717,2.717,0,0,1,.9-3.656Z" transform="translate(-254.351 -109.425)" fill="#fd6141"/>
        <path id="Path_955" data-name="Path 955" d="M444.609,164.511a2.744,2.744,0,0,0-2.137.356,2.733,2.733,0,0,1-.9,3.671,2.743,2.743,0,1,0,3.039-4.012Z" transform="translate(-258.556 -110.381)" fill="#fd6141"/>
      </g>
    </g>
    <path id="Path_37" data-name="Path 37" d="M9.479,291.181a.594.594,0,0,1,.507.306l.756,1.389,1.389.756a.6.6,0,0,1,0,1.047l-1.389.756-.756,1.389a.593.593,0,0,1-1.047,0l-.761-1.389L6.8,294.68a.6.6,0,0,1,0-1.047l1.382-.756.761-1.389a.594.594,0,0,1,.54-.309Zm-.016,1.833-.322.585a.6.6,0,0,1-.236.236l-.585.32.585.322a.6.6,0,0,1,.236.236l.322.585.315-.585a.6.6,0,0,1,.236-.236l.585-.322-.585-.32a.6.6,0,0,1-.236-.239Zm-5.957.547a.6.6,0,1,1-.594.594.6.6,0,0,1,.594-.594Zm.016,3.571h0a.594.594,0,0,1,.507.315l.756,1.382,1.387.761a.6.6,0,0,1,0,1.047l-1.387.756-.756,1.387a.593.593,0,0,1-1.047,0l-.756-1.387-1.389-.756a.6.6,0,0,1,0-1.047l1.389-.761.756-1.385a.594.594,0,0,1,.54-.313Zm-.016,1.837-.32.585a.6.6,0,0,1-.239.239l-.585.32.585.315a.6.6,0,0,1,.239.239l.32.585.322-.585a.6.6,0,0,1,.236-.237l.585-.315-.585-.322a.6.6,0,0,1-.236-.239Zm5.955.547a.6.6,0,1,1-.594.6A.593.593,0,0,1,9.461,299.516Z" transform="translate(79.186 -37.14)" fill="#fba611"/>
    <path id="Path_723" data-name="Path 723" d="M3.491,291.181a.594.594,0,0,0-.507.306l-.756,1.389-1.389.756a.6.6,0,0,0,0,1.047l1.389.756.756,1.389a.593.593,0,0,0,1.047,0l.761-1.389,1.382-.756a.6.6,0,0,0,0-1.047l-1.382-.756-.761-1.389a.594.594,0,0,0-.54-.309Zm.016,1.833.322.585a.6.6,0,0,0,.236.236l.585.32-.585.322a.6.6,0,0,0-.236.236l-.322.585-.315-.585a.6.6,0,0,0-.236-.236l-.585-.322.585-.32a.6.6,0,0,0,.236-.239Zm5.957.547a.6.6,0,1,0,.594.594.6.6,0,0,0-.594-.594Zm-.016,3.571h0a.594.594,0,0,0-.507.315l-.756,1.382L6.8,299.59a.6.6,0,0,0,0,1.047l1.387.756.756,1.387a.593.593,0,0,0,1.047,0l.756-1.387,1.389-.756a.6.6,0,0,0,0-1.047l-1.389-.761-.756-1.385a.594.594,0,0,0-.54-.313Zm.016,1.837.32.585a.6.6,0,0,0,.239.239l.585.32-.585.315a.6.6,0,0,0-.239.239l-.32.585-.322-.585a.6.6,0,0,0-.236-.237l-.585-.315.585-.322a.6.6,0,0,0,.236-.239Zm-5.955.547a.6.6,0,1,0,.594.6A.593.593,0,0,0,3.509,299.516Z" transform="translate(166.186 -87.177)" fill="#2b41cb"/>
    <path id="Path_38" data-name="Path 38" d="M4.954,293.188a.885.885,0,1,1-.883.883.885.885,0,0,1,.883-.883Zm.023,5.306h0a.883.883,0,0,1,.753.468l1.124,2.054,2.061,1.131a.888.888,0,0,1,0,1.556l-2.061,1.124-1.124,2.061a.882.882,0,0,1-1.556,0l-1.124-2.061L.989,303.7a.888.888,0,0,1,0-1.556l2.064-1.131,1.124-2.057a.883.883,0,0,1,.8-.465Zm-.023,2.73-.475.87a.885.885,0,0,1-.355.355l-.87.475.87.468a.885.885,0,0,1,.355.355l.475.87.478-.87a.884.884,0,0,1,.351-.351l.87-.468-.87-.478a.885.885,0,0,1-.351-.355Zm8.849.813a.885.885,0,1,1-.883.887A.881.881,0,0,1,13.8,302.037Z" transform="translate(245.281 -96.27)" fill="#fba611"/>
    <path id="Path_724" data-name="Path 724" d="M4.954,307.354a.885.885,0,1,0-.883-.883.885.885,0,0,0,.883.883Zm.023-5.306h0a.883.883,0,0,0,.753-.468l1.124-2.054,2.061-1.131a.888.888,0,0,0,0-1.556l-2.061-1.124-1.124-2.061a.882.882,0,0,0-1.556,0l-1.124,2.061L.989,296.839a.888.888,0,0,0,0,1.556l2.064,1.131,1.124,2.057a.883.883,0,0,0,.8.465Zm-.023-2.73-.475-.87a.885.885,0,0,0-.355-.355l-.87-.475.87-.468a.885.885,0,0,0,.355-.355l.475-.87.478.87a.884.884,0,0,0,.351.351l.87.468-.87.478a.886.886,0,0,0-.351.355Zm8.849-.813a.885.885,0,1,0-.883-.887A.881.881,0,0,0,13.8,298.505Z" transform="translate(291.281 -71.271)" fill="#ff4d62"/>
    <path id="Path_722" data-name="Path 722" d="M10.265,293.188a.885.885,0,1,0,.883.883.885.885,0,0,0-.883-.883Zm-.023,5.306h0a.883.883,0,0,0-.753.468l-1.124,2.054L6.3,302.147a.888.888,0,0,0,0,1.556l2.061,1.124,1.124,2.061a.882.882,0,0,0,1.556,0l1.124-2.061L14.23,303.7a.888.888,0,0,0,0-1.556l-2.064-1.131-1.124-2.057a.883.883,0,0,0-.8-.465Zm.023,2.73.475.87a.885.885,0,0,0,.355.355l.87.475-.87.468a.885.885,0,0,0-.355.355l-.475.87-.478-.87a.884.884,0,0,0-.351-.351l-.87-.468.87-.478a.886.886,0,0,0,.351-.355Zm-8.849.813a.885.885,0,1,0,.883.887A.881.881,0,0,0,1.416,302.037Z" transform="translate(91.097 -99.187)" fill="#ff4d62"/>
  </g>
</svg>
