<svg xmlns="http://www.w3.org/2000/svg" width="11.828" height="11.828" viewBox="0 0 11.828 11.828">
  <path id="add" d="M8.814,14.628a1.789,1.789,0,0,1-1.789-1.789V10.6H4.789a1.789,1.789,0,0,1,0-3.578H7.025V4.789a1.789,1.789,0,0,1,3.578,0V7.025h2.236a1.789,1.789,0,1,1,0,3.578H10.6v2.236A1.789,1.789,0,0,1,8.814,14.628ZM4.789,7.919a.894.894,0,0,0,0,1.789H7.472a.447.447,0,0,1,.447.447v2.683a.894.894,0,0,0,1.789,0V10.156a.447.447,0,0,1,.447-.447h2.683a.894.894,0,0,0,0-1.789H10.156a.447.447,0,0,1-.447-.447V4.789a.894.894,0,0,0-1.789,0V7.472a.447.447,0,0,1-.447.447Z" transform="translate(-2.9 -2.9)" fill="#2b41cb" stroke="#2b41cb" stroke-linecap="round" stroke-linejoin="round" stroke-width="0.2"/>
</svg>
