<svg xmlns="http://www.w3.org/2000/svg" width="22.651" height="16.498" viewBox="0 0 22.651 16.498">
  <path id="email" d="M22.075,5.5h-16a2.979,2.979,0,0,0-2.208.955s-.007.011-.012.016-.007,0-.01.009l-.006.011A2.975,2.975,0,0,0,3,8.577v9.845A3.081,3.081,0,0,0,6.077,21.5h16a3.081,3.081,0,0,0,3.077-3.077V8.577a2.955,2.955,0,0,0-.847-2.1A3,3,0,0,0,22.075,5.5Zm0,1.231a1.825,1.825,0,0,1,.4.046c.053.012.1.033.155.049a1.738,1.738,0,0,1,.208.074.436.436,0,0,1,.041.023l-7.59,6.626a1.843,1.843,0,0,1-2.414,0L5.277,6.921l.034-.02a1.7,1.7,0,0,1,.245-.087c.042-.012.081-.03.123-.039a1.938,1.938,0,0,1,.4-.044Zm1.846,11.691a1.848,1.848,0,0,1-1.846,1.846h-16a1.848,1.848,0,0,1-1.846-1.846V8.577a1.745,1.745,0,0,1,.19-.769l7.64,6.669a3.078,3.078,0,0,0,4.032,0l7.641-6.669a1.757,1.757,0,0,1,.188.769Z" transform="translate(-2.75 -5.25)" fill="#2b41cb" stroke="#2b41cb" stroke-linecap="round" stroke-linejoin="round" stroke-width="0.5"/>
</svg>
