<svg xmlns="http://www.w3.org/2000/svg" width="21.489" height="14.326" viewBox="0 0 21.489 14.326">
  <g id="eye-open" transform="translate(-8 -16)">
    <path id="Path_60" data-name="Path 60" d="M18.744,17.194a10.356,10.356,0,0,0-9.6,6.2.6.6,0,0,1-1.1-.464A11.549,11.549,0,0,1,18.744,16a11.55,11.55,0,0,1,10.7,6.931.6.6,0,0,1-1.1.464,10.356,10.356,0,0,0-9.6-6.2Z" transform="translate(0)" fill="#ff4d62" fill-rule="evenodd"/>
    <path id="Path_61" data-name="Path 61" d="M18.744,37.232a10.356,10.356,0,0,1-9.6-6.2.6.6,0,0,0-1.1.464,11.55,11.55,0,0,0,10.7,6.931,11.55,11.55,0,0,0,10.7-6.931.6.6,0,0,0-1.1-.464A10.356,10.356,0,0,1,18.744,37.232Z" transform="translate(0 -8.101)" fill="#ff4d62" fill-rule="evenodd"/>
    <path id="Path_62" data-name="Path 62" d="M26.845,23.861a2.985,2.985,0,1,0,2.985,2.985,2.984,2.984,0,0,0-2.985-2.985Zm-4.178,2.984a4.178,4.178,0,1,1,4.178,4.178A4.178,4.178,0,0,1,22.667,26.845Z" transform="translate(-8.101 -3.682)" fill="#ff4d62" fill-rule="evenodd"/>
  </g>
</svg>
