<svg id="google" xmlns="http://www.w3.org/2000/svg" width="32.02" height="32.673" viewBox="0 0 32.02 32.673">
  <path id="Path_178" data-name="Path 178" d="M146.233,110.1a14,14,0,0,0-.345-3.34H130.55v6.063h9a7.983,7.983,0,0,1-3.34,5.3l-.031.2,4.85,3.757.336.034a15.973,15.973,0,0,0,4.865-12.016" transform="translate(-114.213 -93.401)" fill="#4285f4"/>
  <path id="Path_179" data-name="Path 179" d="M28.519,169.476a15.571,15.571,0,0,0,10.818-3.957l-5.155-3.993a9.669,9.669,0,0,1-5.663,1.634,9.835,9.835,0,0,1-9.294-6.789l-.192.016-5.043,3.9-.066.183a16.325,16.325,0,0,0,14.594,9" transform="translate(-12.182 -136.803)" fill="#34a853"/>
  <path id="Path_180" data-name="Path 180" d="M7.043,81.956A10.057,10.057,0,0,1,6.5,78.725a10.568,10.568,0,0,1,.526-3.231l-.009-.216L1.91,71.312l-.167.079a16.3,16.3,0,0,0,0,14.667l5.3-4.1" transform="translate(0 -62.388)" fill="#fbbc05"/>
  <path id="Path_181" data-name="Path 181" d="M28.519,6.317a9.054,9.054,0,0,1,6.317,2.432l4.611-4.5A15.7,15.7,0,0,0,28.519,0,16.325,16.325,0,0,0,13.925,9l5.282,4.1a9.875,9.875,0,0,1,9.312-6.789" transform="translate(-12.182)" fill="#eb4335"/>
</svg>
