<svg width="25" height="21" viewBox="0 0 25 21" fill="none" xmlns="http://www.w3.org/2000/svg">
<g clip-path="url(#clip0_37_7426)">
<path d="M12.39 19.4462C11.757 19.4473 11.1342 19.2895 10.5813 18.9881C4.68131 15.7517 1.43202 11.7659 1.43202 7.76458C1.38016 6.97312 1.48972 6.17948 1.75431 5.42984C2.0189 4.68019 2.43324 3.98952 2.97323 3.398C3.51321 2.80649 4.16805 2.32595 4.89964 1.98434C5.63123 1.64274 6.42496 1.44689 7.23464 1.4082C8.2035 1.40877 9.16174 1.60561 10.049 1.98634C10.9363 2.36708 11.7333 2.92344 12.39 3.6204C13.0466 2.92344 13.8437 2.36708 14.7309 1.98634C15.6182 1.60561 16.5765 1.40877 17.5453 1.4082C18.3548 1.4462 19.1486 1.6413 19.8803 1.98215C20.6121 2.323 21.2673 2.80279 21.8078 3.39362C22.3482 3.98446 22.7633 4.67454 23.0286 5.42372C23.294 6.1729 23.4045 6.96624 23.3537 7.75757C23.3537 11.7589 20.1044 15.7433 14.2044 18.9811C13.6504 19.2859 13.0256 19.446 12.39 19.4462Z" stroke="#FF4D62" stroke-width="2" stroke-linecap="round" stroke-linejoin="round"/>
</g>
<defs>
<clipPath id="clip0_37_7426">
<rect width="24.78" height="20.84" fill="white"/>
</clipPath>
</defs>
</svg>
