<svg width="20" height="23" viewBox="0 0 20 23" fill="none" xmlns="http://www.w3.org/2000/svg">
<g clip-path="url(#clip0_207_6832)">
<path fill-rule="evenodd" clip-rule="evenodd" d="M3.49934 3.45382C1.82356 5.11829 0.877624 7.38029 0.869629 9.7422V9.77235C0.951608 12.1433 1.77164 14.4295 3.21531 16.312C4.83112 18.4696 6.81396 20.326 9.07315 21.7964C9.26911 21.966 9.51958 22.0593 9.77871 22.0593C10.0378 22.0593 10.2883 21.966 10.4843 21.7964C11.9997 20.8178 13.3969 19.6673 14.6481 18.3678C16.9869 16.1378 18.4225 13.1246 18.6808 9.90337V9.8025C18.6888 7.44059 17.7582 5.17224 16.0938 3.49646C14.4293 1.82068 12.1673 0.874746 9.80538 0.86675C7.44347 0.858755 5.17511 1.78935 3.49934 3.45382ZM14 10C14 12.2091 12.2091 14 10 14C7.79086 14 6 12.2091 6 10C6 7.79086 7.79086 6 10 6C12.2091 6 14 7.79086 14 10Z" fill="#2B41CB"/>
<path d="M0.869629 9.7422L0.119629 9.73966V9.7422H0.869629ZM3.49934 3.45382L4.02787 3.98595L3.49934 3.45382ZM0.869629 9.77235H0.119629C0.119629 9.78099 0.119778 9.78963 0.120077 9.79827L0.869629 9.77235ZM3.21531 16.312L3.81567 15.8624L3.81045 15.8556L3.21531 16.312ZM9.07315 21.7964L9.56388 21.2293C9.5381 21.207 9.51084 21.1865 9.48227 21.1679L9.07315 21.7964ZM10.4843 21.7964L10.0774 21.1664C10.048 21.1854 10.02 21.2064 9.99354 21.2293L10.4843 21.7964ZM14.6481 18.3678L14.1305 17.825C14.1228 17.8324 14.1152 17.8399 14.1078 17.8476L14.6481 18.3678ZM18.6808 9.90337L19.4284 9.96334C19.43 9.94339 19.4308 9.92339 19.4308 9.90337H18.6808ZM18.6808 9.8025L17.9308 9.79996V9.8025H18.6808ZM16.0938 3.49646L16.6259 2.96793L16.0938 3.49646ZM9.80538 0.86675L9.80792 0.116755L9.80538 0.86675ZM1.61962 9.74474C1.62695 7.58174 2.49322 5.51024 4.02787 3.98595L2.9708 2.9217C1.1539 4.72635 0.128302 7.17884 0.119633 9.73966L1.61962 9.74474ZM1.61963 9.77235V9.7422H0.119629V9.77235H1.61963ZM3.81045 15.8556C2.46182 14.097 1.69576 11.9613 1.61918 9.74643L0.120077 9.79827C0.207453 12.3253 1.08147 14.762 2.62017 16.7684L3.81045 15.8556ZM9.48227 21.1679C7.29682 19.7454 5.3787 17.9496 3.81563 15.8624L2.61499 16.7615C4.28354 18.9896 6.3311 20.9066 8.66403 22.425L9.48227 21.1679ZM9.77871 21.3093C9.69981 21.3093 9.62354 21.2809 9.56388 21.2293L8.58242 22.3636C8.91468 22.6511 9.33935 22.8093 9.77871 22.8093V21.3093ZM9.99354 21.2293C9.93387 21.2809 9.85761 21.3093 9.77871 21.3093V22.8093C10.2181 22.8093 10.6427 22.6511 10.975 22.3636L9.99354 21.2293ZM14.1078 17.8476C12.8967 19.1055 11.5443 20.2191 10.0774 21.1664L10.8911 22.4265C12.4551 21.4165 13.8971 20.2291 15.1883 18.888L14.1078 17.8476ZM17.9332 9.84341C17.6896 12.8809 16.3359 15.7222 14.1305 17.825L15.1656 18.9106C17.6378 16.5534 19.1553 13.3683 19.4284 9.96334L17.9332 9.84341ZM17.9308 9.8025V9.90337H19.4308V9.8025H17.9308ZM15.5616 4.02499C17.0859 5.55964 17.9382 7.63696 17.9308 9.79996L19.4308 9.80504C19.4395 7.24421 18.4305 4.78483 16.6259 2.96793L15.5616 4.02499ZM9.80284 1.61675C11.9658 1.62407 14.0373 2.49034 15.5616 4.02499L16.6259 2.96793C14.8212 1.15102 12.3687 0.125424 9.80792 0.116755L9.80284 1.61675ZM4.02787 3.98595C5.56252 2.46165 7.63984 1.60942 9.80284 1.61675L9.80792 0.116755C7.24709 0.108086 4.78771 1.11706 2.9708 2.9217L4.02787 3.98595ZM10 14.75C12.6234 14.75 14.75 12.6234 14.75 10H13.25C13.25 11.7949 11.7949 13.25 10 13.25V14.75ZM5.25 10C5.25 12.6234 7.37665 14.75 10 14.75V13.25C8.20507 13.25 6.75 11.7949 6.75 10H5.25ZM10 5.25C7.37665 5.25 5.25 7.37665 5.25 10H6.75C6.75 8.20507 8.20507 6.75 10 6.75V5.25ZM14.75 10C14.75 7.37665 12.6234 5.25 10 5.25V6.75C11.7949 6.75 13.25 8.20507 13.25 10H14.75Z" fill="#2B41CB"/>
</g>
<defs>
<clipPath id="clip0_207_6832">
<rect width="19.5458" height="23" fill="white"/>
</clipPath>
</defs>
</svg>
