<svg width="20" height="23" viewBox="0 0 20 23" fill="none" xmlns="http://www.w3.org/2000/svg">
<g clip-path="url(#clip0_26_5471)">
<path fill-rule="evenodd" clip-rule="evenodd" d="M0.869629 9.7422C0.877624 7.38029 1.82356 5.11829 3.49934 3.45382C5.17511 1.78935 7.44347 0.858755 9.80538 0.86675C12.1673 0.874746 14.4293 1.82068 16.0938 3.49646C17.7582 5.17224 18.6888 7.44059 18.6808 9.8025V9.90337C18.4225 13.1246 16.9869 16.1378 14.6481 18.3678C13.3969 19.6673 11.9997 20.8178 10.4843 21.7964C10.2883 21.966 10.0378 22.0593 9.77871 22.0593C9.51958 22.0593 9.26911 21.966 9.07315 21.7964C6.81396 20.326 4.83112 18.4696 3.21531 16.312C1.77164 14.4295 0.951608 12.1433 0.869629 9.77235V9.7422Z" stroke="#2B41CB" stroke-width="1.5" stroke-linecap="round" stroke-linejoin="round"/>
<path d="M9.77231 12.7672C11.3483 12.7672 12.6259 11.4896 12.6259 9.91361C12.6259 8.33764 11.3483 7.06006 9.77231 7.06006C8.19634 7.06006 6.91876 8.33764 6.91876 9.91361C6.91876 11.4896 8.19634 12.7672 9.77231 12.7672Z" stroke="#FF4D62" stroke-width="1.5" stroke-linecap="round" stroke-linejoin="round"/>
</g>
<defs>
<clipPath id="clip0_26_5471">
<rect width="19.5458" height="23" fill="white"/>
</clipPath>
</defs>
</svg>
