<svg xmlns="http://www.w3.org/2000/svg" xmlns:xlink="http://www.w3.org/1999/xlink" viewBox="0 0 2931.81 1359.75"><defs><linearGradient id="linear-gradient" x1="2310.64" y1="1577.68" x2="1948.64" y2="1215.69" gradientUnits="userSpaceOnUse"><stop offset="0" stop-color="#2b41cb"/><stop offset="0.36" stop-color="#2b41c8"/><stop offset="0.67" stop-color="#2942bd"/><stop offset="0.96" stop-color="#2743ab"/><stop offset="1" stop-color="#2743a8"/></linearGradient><linearGradient id="linear-gradient-2" x1="3304.92" y1="1577.68" x2="2942.92" y2="1215.69" gradientTransform="matrix(-1, 0, 0, 1, 3994.29, 0)" gradientUnits="userSpaceOnUse"><stop offset="0" stop-color="#fba611"/><stop offset="0.47" stop-color="#f8a312"/><stop offset="0.88" stop-color="#ee9814"/><stop offset="1" stop-color="#ea9315"/></linearGradient></defs><g id="Layer_5" data-name="Layer 5"><path d="M2748.54,1111.63s77.51-28.65,110.36-53.93c0,0-57.28,169.34-260.32,205.56,0,0,14.33,32,69.92,27,0,0-147.43,115.41-324.35,111.2,0,0,13.48,26.11,85.1,18.54,0,0-91.83,74.13-371.53,88.46,0,0,27.79,26.11,90.14,17.69,0,0-119.62,86.78-321.83,101.93,0,0,8.43,21.07,90.16,12.64,0,0-299.92,128.06-416.19,539.19,0,0,47.18-881,732.94-1099.33,458-57.47,733-260.43,733-260.43S2967.58,981.89,2748.54,1111.63Z" transform="translate(-34.1 -820.12)" fill="#2b41cb"/><path d="M1500,2179.88c-116.27-411.13-416.19-539.19-416.19-539.19,81.73,8.43,90.16-12.64,90.16-12.64-202.21-15.15-321.83-101.93-321.83-101.93,62.35,8.42,90.14-17.69,90.14-17.69C662.58,1494.1,570.75,1420,570.75,1420c71.62,7.57,85.1-18.54,85.1-18.54-176.92,4.21-324.35-111.2-324.35-111.2,55.59,5,69.92-27,69.92-27C198.38,1227,141.1,1057.7,141.1,1057.7c32.85,25.28,110.36,53.93,110.36,53.93C32.41,981.89,34.1,820.12,34.1,820.12s275,203,733,260.43C1452.82,1298.84,1500,2179.88,1500,2179.88Z" transform="translate(-34.1 -820.12)" fill="#fba611"/><path d="M2232.94,1080.55C1547.18,1298.84,1500,2179.88,1500,2179.88s-47.18-881-732.94-1099.33q10,1.26,20.21,2.43c470.1,53.92,712.73,419.55,712.73,419.55S1742.63,1136.9,2212.73,1083Q2222.9,1081.81,2232.94,1080.55Z" transform="translate(-34.1 -820.12)" fill="#ed4863"/><path d="M2965.9,820.12s-10.11,347.1-606.58,394.28C1755.69,1262.15,1500,2179.88,1500,2179.88s15.73-866.63,732.94-1099.33C2232.94,1080.55,2631.91,1044.41,2965.9,820.12Z" transform="translate(-34.1 -820.12)" fill="url(#linear-gradient)"/><path d="M34.1,820.12s10.12,347.1,606.59,394.28c603.63,47.75,859.32,965.48,859.32,965.48s-15.73-866.63-732.95-1099.33C767.06,1080.55,368.1,1044.41,34.1,820.12Z" transform="translate(-34.1 -820.12)" fill="url(#linear-gradient-2)"/><path d="M1500,2179.88s17.69-874.49,732.94-1099.33C2232.94,1080.55,1609.52,1361,1500,2179.88Z" transform="translate(-34.1 -820.12)" fill="#2743a8"/><path d="M1500,2179.88s-21.9-879.55-732.94-1099.33C767.06,1080.55,1390.48,1361,1500,2179.88Z" transform="translate(-34.1 -820.12)" fill="#ea9315"/><path d="M2232.94,1080.55C1631.26,1254.16,1501,1773.1,1500,1777.14c0,0,0,0,0,0h0c-1-4-131.26-523-732.94-696.59,0,0,422.06,9.17,732.94,422C1810.88,1089.72,2232.94,1080.55,2232.94,1080.55Z" transform="translate(-34.1 -820.12)" fill="#ff4d62"/><path d="M1500,1777.15v0Z" transform="translate(-34.1 -820.12)" fill="#ff4d62"/></g></svg>