<svg width="232" height="111" viewBox="0 0 232 111" fill="none" xmlns="http://www.w3.org/2000/svg">
<g clip-path="url(#clip0_207_9434)">
<path d="M212.391 25.04C212.391 25.04 218.384 22.825 220.924 20.87C219.218 25.0267 216.47 28.6735 212.944 31.4586C209.418 34.2436 205.234 36.073 200.795 36.77C200.795 36.77 201.903 39.246 206.202 38.855C206.202 38.855 194.802 47.779 181.122 47.455C181.122 47.455 182.164 49.474 187.702 48.888C187.702 48.888 180.602 54.62 158.974 55.728C158.974 55.728 161.123 57.747 165.945 57.096C165.945 57.096 156.695 63.806 141.06 64.978C141.06 64.978 141.712 66.607 148.031 65.955C148.031 65.955 124.84 75.855 115.85 107.647C115.85 107.647 119.498 39.522 172.524 22.647C207.938 18.201 229.199 2.51001 229.199 2.51001C229.199 2.51001 229.328 15.008 212.391 25.04Z" fill="#1C1C23" stroke="#1C1C23" stroke-width="5" stroke-linecap="round" stroke-linejoin="round"/>
<path d="M115.849 107.641C106.859 75.851 83.668 65.949 83.668 65.949C89.987 66.601 90.639 64.972 90.639 64.972C75.004 63.8 65.754 57.09 65.754 57.09C70.575 57.741 72.724 55.722 72.724 55.722C51.097 54.614 43.996 48.882 43.996 48.882C49.534 49.468 50.576 47.449 50.576 47.449C36.896 47.774 25.496 38.849 25.496 38.849C29.796 39.24 30.903 36.764 30.903 36.764C26.4643 36.0669 22.2802 34.2375 18.7543 31.4525C15.2285 28.6674 12.48 25.0206 10.774 20.864C13.314 22.819 19.307 25.034 19.307 25.034C2.37001 15.002 2.49997 2.49402 2.49997 2.49402C2.49997 2.49402 23.761 18.187 59.175 22.631C112.201 39.516 115.849 107.641 115.849 107.641Z" fill="#1C1C23" stroke="#1C1C23" stroke-width="5" stroke-linecap="round" stroke-linejoin="round"/>
<path d="M172.523 22.637C119.497 39.516 115.849 107.637 115.849 107.637C115.849 107.637 112.201 39.512 59.175 22.637C59.6923 22.7036 60.2133 22.7663 60.7379 22.825C97.0879 26.994 115.849 55.2659 115.849 55.2659C115.849 55.2659 134.61 26.994 170.96 22.825C171.484 22.765 172.005 22.7023 172.523 22.637Z" fill="#1C1C23" stroke="#1C1C23" stroke-width="5" stroke-linecap="round" stroke-linejoin="round"/>
<path d="M229.198 2.5C229.198 2.5 228.416 29.339 182.298 32.987C135.623 36.678 115.852 107.641 115.852 107.641C115.852 107.641 117.068 40.631 172.526 22.641C172.523 22.637 203.372 19.843 229.198 2.5Z" fill="#1C1C23" stroke="#1C1C23" stroke-width="5" stroke-linecap="round" stroke-linejoin="round"/>
<path d="M2.5 2.5C2.5 2.5 3.28299 29.339 49.4 32.987C96.075 36.678 115.846 107.641 115.846 107.641C115.846 107.641 114.63 40.631 59.171 22.641C59.175 22.637 28.327 19.843 2.5 2.5Z" fill="#1C1C23" stroke="#1C1C23" stroke-width="5" stroke-linecap="round" stroke-linejoin="round"/>
<path d="M115.849 107.641C115.849 107.641 117.217 40.022 172.523 22.641C172.523 22.637 124.318 44.322 115.849 107.641Z" fill="#1C1C23" stroke="#1C1C23" stroke-width="5" stroke-linecap="round" stroke-linejoin="round"/>
<path d="M115.849 107.641C115.849 107.641 114.155 39.632 59.175 22.641C59.175 22.637 107.38 44.322 115.849 107.641Z" fill="#1C1C23" stroke="#1C1C23" stroke-width="5" stroke-linecap="round" stroke-linejoin="round"/>
<path d="M172.523 22.637C125.995 36.065 115.923 76.1929 115.849 76.4999C115.772 76.1879 105.703 36.062 59.175 22.637C59.175 22.637 91.8111 23.3459 115.849 55.2659C139.887 23.3459 172.523 22.637 172.523 22.637Z" fill="#1C1C23" stroke="#1C1C23" stroke-width="5" stroke-linecap="round" stroke-linejoin="round"/>
<path d="M212.391 25.04C212.391 25.04 218.384 22.825 220.924 20.87C219.218 25.0267 216.47 28.6735 212.944 31.4586C209.418 34.2436 205.234 36.073 200.795 36.77C200.795 36.77 201.903 39.246 206.202 38.855C206.202 38.855 194.802 47.779 181.122 47.455C181.122 47.455 182.164 49.474 187.702 48.888C187.702 48.888 180.602 54.62 158.974 55.728C158.974 55.728 161.123 57.747 165.945 57.096C165.945 57.096 156.695 63.806 141.06 64.978C141.06 64.978 141.712 66.607 148.031 65.955C148.031 65.955 124.84 75.855 115.85 107.647C115.85 107.647 119.498 39.522 172.524 22.647C207.938 18.201 229.199 2.51001 229.199 2.51001C229.199 2.51001 229.328 15.008 212.391 25.04Z" fill="#2B41CB"/>
<path d="M115.849 107.641C106.859 75.851 83.668 65.949 83.668 65.949C89.987 66.601 90.639 64.972 90.639 64.972C75.004 63.8 65.754 57.09 65.754 57.09C70.575 57.741 72.724 55.722 72.724 55.722C51.097 54.614 43.996 48.882 43.996 48.882C49.534 49.468 50.576 47.449 50.576 47.449C36.896 47.774 25.496 38.849 25.496 38.849C29.796 39.24 30.903 36.764 30.903 36.764C26.4643 36.0669 22.2802 34.2375 18.7543 31.4525C15.2285 28.6674 12.48 25.0206 10.774 20.864C13.314 22.819 19.307 25.034 19.307 25.034C2.37001 15.002 2.49997 2.49402 2.49997 2.49402C2.49997 2.49402 23.761 18.187 59.175 22.631C112.201 39.516 115.849 107.641 115.849 107.641Z" fill="#FBA611"/>
<path d="M172.523 22.637C119.497 39.516 115.849 107.637 115.849 107.637C115.849 107.637 112.201 39.512 59.175 22.637C59.6923 22.7036 60.2133 22.7663 60.7379 22.825C97.0879 26.994 115.849 55.2659 115.849 55.2659C115.849 55.2659 134.61 26.994 170.96 22.825C171.484 22.765 172.005 22.7023 172.523 22.637Z" fill="#ED4863"/>
<path d="M229.198 2.5C229.198 2.5 228.416 29.339 182.298 32.987C135.623 36.678 115.852 107.641 115.852 107.641C115.852 107.641 117.068 40.631 172.526 22.641C172.523 22.637 203.372 19.843 229.198 2.5Z" fill="url(#paint0_linear_207_9434)"/>
<path d="M2.5 2.5C2.5 2.5 3.28299 29.339 49.4 32.987C96.075 36.678 115.846 107.641 115.846 107.641C115.846 107.641 114.63 40.631 59.171 22.641C59.175 22.637 28.327 19.843 2.5 2.5Z" fill="url(#paint1_linear_207_9434)"/>
<path d="M115.849 107.641C115.849 107.641 117.217 40.022 172.523 22.641C172.523 22.637 124.318 44.322 115.849 107.641Z" fill="#2743A8"/>
<path d="M115.849 107.641C115.849 107.641 114.155 39.632 59.175 22.641C59.175 22.637 107.38 44.322 115.849 107.641Z" fill="#EA9315"/>
<path d="M172.523 22.637C125.995 36.065 115.923 76.1929 115.849 76.4999C115.772 76.1879 105.703 36.062 59.175 22.637C59.175 22.637 91.8111 23.3459 115.849 55.2659C139.887 23.3459 172.523 22.637 172.523 22.637Z" fill="#FF4D62"/>
</g>
<defs>
<linearGradient id="paint0_linear_207_9434" x1="178.532" y1="61.0635" x2="152.779" y2="31.1643" gradientUnits="userSpaceOnUse">
<stop stop-color="#2B41CB"/>
<stop offset="0.36" stop-color="#2B41C8"/>
<stop offset="0.67" stop-color="#2942BD"/>
<stop offset="0.96" stop-color="#2743AB"/>
<stop offset="1" stop-color="#2743A8"/>
</linearGradient>
<linearGradient id="paint1_linear_207_9434" x1="291.872" y1="61.0635" x2="266.119" y2="31.1643" gradientUnits="userSpaceOnUse">
<stop stop-color="#FBA611"/>
<stop offset="0.47" stop-color="#F8A312"/>
<stop offset="0.88" stop-color="#EE9814"/>
<stop offset="1" stop-color="#EA9315"/>
</linearGradient>
<clipPath id="clip0_207_9434">
<rect width="231.699" height="110.141" fill="white"/>
</clipPath>
</defs>
</svg>
