<svg width="24" height="25" viewBox="0 0 24 25" fill="none" xmlns="http://www.w3.org/2000/svg">
<g clip-path="url(#clip0_201_6651)">
<path d="M12 7.29167C10.07 7.29167 8.5 5.65573 8.5 3.64583C8.5 1.63594 10.07 0 12 0C13.93 0 15.5 1.63594 15.5 3.64583C15.5 5.65573 13.93 7.29167 12 7.29167ZM12 1.04167C10.6215 1.04167 9.5 2.2099 9.5 3.64583C9.5 5.08177 10.6215 6.25 12 6.25C13.3785 6.25 14.5 5.08177 14.5 3.64583C14.5 2.2099 13.3785 1.04167 12 1.04167Z" fill="#2B41CB"/>
<path d="M13.5 19.7917H10.5C10.3674 19.7917 10.2402 19.7368 10.1464 19.6391C10.0527 19.5414 10 19.409 10 19.2708V15.1214C7.793 13.9151 7 10.7552 7 8.33333C7 8.1952 7.05268 8.06272 7.14645 7.96505C7.24021 7.86737 7.36739 7.8125 7.5 7.8125H16.5C16.6326 7.8125 16.7598 7.86737 16.8536 7.96505C16.9473 8.06272 17 8.1952 17 8.33333C17 10.7552 16.207 13.9151 14 15.1214V19.2708C14 19.409 13.9473 19.5414 13.8536 19.6391C13.7598 19.7368 13.6326 19.7917 13.5 19.7917ZM11 18.75H13V14.7917C13 14.5823 13.1205 14.3927 13.3055 14.3115C15.2385 13.4625 15.8835 10.6896 15.985 8.85365H8.015C8.1165 10.6891 8.7615 13.4625 10.6945 14.3115C10.8795 14.3932 11 14.5823 11 14.7917V18.75Z" fill="#2B41CB"/>
<path d="M12 22.3956C9.2145 22.3956 4.5 21.9019 4.5 20.0519C4.5 19.131 5.646 18.456 7.907 18.044C8.03735 18.0209 8.1712 18.0524 8.27927 18.1318C8.38733 18.2112 8.46081 18.3319 8.48362 18.4676C8.50643 18.6033 8.47672 18.7429 8.40098 18.8558C8.32524 18.9687 8.20965 19.0457 8.0795 19.0701C6.0725 19.4352 5.5335 19.9466 5.499 20.0633C5.634 20.4987 7.9865 21.3539 12 21.3539C16.0135 21.3539 18.366 20.4987 18.501 20.0404C18.4665 19.9472 17.93 19.4383 15.933 19.0727C15.8024 19.0488 15.6862 18.9718 15.6101 18.8587C15.5339 18.7456 15.5041 18.6056 15.527 18.4696C15.5499 18.3335 15.6238 18.2125 15.7324 18.1332C15.841 18.0539 15.9754 18.0228 16.106 18.0467C18.3585 18.4581 19.5 19.1331 19.5 20.0519C19.5 21.9019 14.7855 22.3956 12 22.3956Z" fill="#2B41CB"/>
<path d="M12 25.0001C4.206 25.0001 0 22.5849 0 20.3126C0 17.8376 4.099 16.4042 7.9355 15.8881C8.06705 15.8704 8.19995 15.9079 8.30497 15.9923C8.40999 16.0767 8.47853 16.201 8.4955 16.3381C8.51247 16.4751 8.4765 16.6135 8.39548 16.7229C8.31446 16.8323 8.19505 16.9037 8.0635 16.9214C3.4265 17.5454 1 19.0995 1 20.3126C1 22.037 5.5175 23.9584 12 23.9584C18.4825 23.9584 23 22.037 23 20.3126C23 19.0995 20.5745 17.5459 15.939 16.9219C15.8739 16.9132 15.811 16.8912 15.754 16.8571C15.6971 16.8231 15.6471 16.7777 15.607 16.7235C15.5669 16.6693 15.5374 16.6074 15.5202 16.5414C15.5031 16.4754 15.4986 16.4064 15.507 16.3386C15.542 16.0527 15.7945 15.8568 16.067 15.8886C19.902 16.4047 24 17.8381 24 20.3126C24 22.5849 19.794 25.0001 12 25.0001Z" fill="#2B41CB"/>
</g>
<defs>
<clipPath id="clip0_201_6651">
<rect width="24" height="25" fill="white"/>
</clipPath>
</defs>
</svg>
