<svg xmlns="http://www.w3.org/2000/svg" width="24.168" height="24.168" viewBox="0 0 24.168 24.168">
  <g id="orders" transform="translate(-2.25 -2.25)">
    <path id="Path_171" data-name="Path 171" d="M12.53,15.324a1.918,1.918,0,0,1-.792-.174,1.973,1.973,0,0,1-1.157-1.815V3.24a.99.99,0,1,1,1.981,0v10.1l1.862-1.648a1.91,1.91,0,0,1,2.544,0l1.91,1.656-.063-10.1a.99.99,0,0,1,1.981,0v10.1a1.973,1.973,0,0,1-1.157,1.815,1.91,1.91,0,0,1-2.068-.309l-1.886-1.632L13.8,14.849a1.91,1.91,0,0,1-1.268.475ZM15.652,13.185ZM15.723,13.185Zm1.149,8.336H9.74a.99.99,0,0,1,0-1.981h7.132a.99.99,0,1,1,0,1.981Z" transform="translate(-1.349)" fill="#ff4d62"/>
    <path id="Path_170" data-name="Path 170" d="M22.21,26.418H6.466A4.216,4.216,0,0,1,2.25,22.2V6.458A4.216,4.216,0,0,1,6.466,2.25H22.21a4.208,4.208,0,0,1,4.208,4.208V22.2a4.216,4.216,0,0,1-4.208,4.216ZM6.466,4.231A2.227,2.227,0,0,0,4.231,6.458V22.2a2.235,2.235,0,0,0,2.235,2.235H22.21A2.227,2.227,0,0,0,24.437,22.2V6.458A2.227,2.227,0,0,0,22.21,4.231Z" fill="#2b41cb"/>
  </g>
</svg>
