<svg xmlns="http://www.w3.org/2000/svg" width="22.151" height="22.151" viewBox="0 0 22.151 22.151">
  <path id="phone" d="M24.925,18.936l-1.978-1.978a3.166,3.166,0,0,0-4.44-.019,1.935,1.935,0,0,1-2.454.24,13.509,13.509,0,0,1-3.723-3.716A1.961,1.961,0,0,1,12.586,11a3.166,3.166,0,0,0-.028-4.426L10.58,4.6a3.159,3.159,0,0,0-4.46,0l-.569.57c-2.967,2.967-2.745,9.2,3.428,15.374,3.722,3.723,7.468,5.282,10.506,5.282a6.743,6.743,0,0,0,4.871-1.853l.57-.57A3.158,3.158,0,0,0,24.925,18.936Zm-1.271,3.193-.57.57c-2.338,2.338-7.5,1.91-12.835-3.428S4.483,8.768,6.82,6.431l.566-.569a1.358,1.358,0,0,1,1.918,0l1.978,1.978a1.358,1.358,0,0,1,.019,1.9,3.759,3.759,0,0,0-.477,4.71,15.293,15.293,0,0,0,4.237,4.231,3.757,3.757,0,0,0,4.7-.465,1.359,1.359,0,0,1,1.9.012L23.645,20.2a1.358,1.358,0,0,1,.008,1.926Z" transform="translate(-3.698 -3.675)" fill="#2b41cb"/>
</svg>
