<svg xmlns="http://www.w3.org/2000/svg" width="20.998" height="25" viewBox="0 0 20.998 25">
  <g id="privacy-policy-dark" transform="translate(-50.001 -588)">
    <path id="Path_79" data-name="Path 79" d="M23.125,6.156A38.236,38.236,0,0,1,15.8,3.173a2.6,2.6,0,0,0-2.725,0A38.252,38.252,0,0,1,5.757,6.156,2.6,2.6,0,0,0,3.943,8.717l.286,8.63c.637,4.336,5.185,7.952,7.839,9.72a4.269,4.269,0,0,0,4.745,0c2.655-1.769,7.2-5.384,7.848-9.818l.277-8.531a2.6,2.6,0,0,0-1.813-2.562Zm-.187,10.939c-.54,3.674-4.671,6.921-7.086,8.53a2.536,2.536,0,0,1-2.823,0c-2.415-1.609-6.546-4.857-7.077-8.431L5.675,8.662a.864.864,0,0,1,.6-.852,39.752,39.752,0,0,0,7.709-3.16.849.849,0,0,1,.914,0,39.737,39.737,0,0,0,7.71,3.159.865.865,0,0,1,.6.852Zm-6.965-3.27a1.505,1.505,0,0,1-.666,1.229v2.359a.866.866,0,0,1-1.733,0V15.053a1.505,1.505,0,0,1-.666-1.229,1.532,1.532,0,0,1,3.065,0Z" transform="translate(46.059 585.213)" fill="#3e3f4a"/>
    <g id="Group_75" data-name="Group 75" transform="translate(-2.597 4)">
      <circle id="Ellipse_13" data-name="Ellipse 13" cx="1.597" cy="1.597" r="1.597" transform="translate(61.5 593.5)" fill="#4056e3"/>
      <rect id="Rectangle_91" data-name="Rectangle 91" width="2" height="4.903" rx="1" transform="translate(62.097 595.097)" fill="#4056e3"/>
    </g>
  </g>
</svg>
