<svg width="20" height="26" viewBox="0 0 20 26" fill="none" xmlns="http://www.w3.org/2000/svg">
<g clip-path="url(#clip0_26_5425)">
<path fill-rule="evenodd" clip-rule="evenodd" d="M9.55001 16.244C6.70001 16.244 4.17801 15.057 2.61201 16.244C2.04501 16.5791 1.57515 17.0561 1.24874 17.6282C0.922338 18.2002 0.750671 18.8474 0.750671 19.506C0.750671 20.1646 0.922338 20.8118 1.24874 21.3839C1.57515 21.9559 2.04501 22.4329 2.61201 22.768C4.661 24.1369 7.08713 24.83 9.55001 24.75C12.0129 24.83 14.439 24.1369 16.488 22.768C17.055 22.4329 17.5249 21.9559 17.8513 21.3839C18.1777 20.8118 18.3493 20.1646 18.3493 19.506C18.3493 18.8474 18.1777 18.2002 17.8513 17.6282C17.5249 17.0561 17.055 16.5791 16.488 16.244C14.922 15.056 12.4 16.244 9.55001 16.244ZM9.55001 0.75C8.02954 0.853928 6.60523 1.53124 5.56498 2.64502C4.52473 3.7588 3.94613 5.22598 3.94613 6.75C3.94613 8.27402 4.52473 9.7412 5.56498 10.855C6.60523 11.9688 8.02954 12.6461 9.55001 12.75C11.0705 12.6461 12.4948 11.9688 13.535 10.855C14.5753 9.7412 15.1539 8.27402 15.1539 6.75C15.1539 5.22598 14.5753 3.7588 13.535 2.64502C12.4948 1.53124 11.0705 0.853928 9.55001 0.75Z" stroke="#FF4D62" stroke-width="1.5"/>
</g>
<defs>
<clipPath id="clip0_26_5425">
<rect width="19.1" height="25.5" fill="white"/>
</clipPath>
</defs>
</svg>
