<svg xmlns="http://www.w3.org/2000/svg" width="24" height="24" fill="none" viewBox="0 0 24 24" id="scatter-chart">
  <path fill="#000" fill-rule="evenodd" d="M2 1.5C2.27614 1.5 2.5 1.72386 2.5 2V18C2.5 19.933 4.067 21.5 6 21.5H22C22.2761 21.5 22.5 21.7239 22.5 22C22.5 22.2761 22.2761 22.5 22 22.5H6C3.51472 22.5 1.5 20.4853 1.5 18V2C1.5 1.72386 1.72386 1.5 2 1.5Z" clip-rule="evenodd"></path>
  <path fill="#000" fill-rule="evenodd" d="M8 10.5C7.17157 10.5 6.5 11.1716 6.5 12 6.5 12.8284 7.17157 13.5 8 13.5 8.82843 13.5 9.5 12.8284 9.5 12 9.5 11.1716 8.82843 10.5 8 10.5zM5.5 12C5.5 10.6193 6.61929 9.5 8 9.5 9.38071 9.5 10.5 10.6193 10.5 12 10.5 13.3807 9.38071 14.5 8 14.5 6.61929 14.5 5.5 13.3807 5.5 12zM19 3.5C18.1716 3.5 17.5 4.17157 17.5 5 17.5 5.82843 18.1716 6.5 19 6.5 19.8284 6.5 20.5 5.82843 20.5 5 20.5 4.17157 19.8284 3.5 19 3.5zM16.5 5C16.5 3.61929 17.6193 2.5 19 2.5 20.3807 2.5 21.5 3.61929 21.5 5 21.5 6.38071 20.3807 7.5 19 7.5 17.6193 7.5 16.5 6.38071 16.5 5zM16 13.5C15.1716 13.5 14.5 14.1716 14.5 15 14.5 15.8284 15.1716 16.5 16 16.5 16.8284 16.5 17.5 15.8284 17.5 15 17.5 14.1716 16.8284 13.5 16 13.5zM13.5 15C13.5 13.6193 14.6193 12.5 16 12.5 17.3807 12.5 18.5 13.6193 18.5 15 18.5 16.3807 17.3807 17.5 16 17.5 14.6193 17.5 13.5 16.3807 13.5 15z" clip-rule="evenodd"></path>
  <path fill="#000" fill-rule="evenodd" d="M9.5529 12.7764C9.67639 12.5294 9.97673 12.4293 10.2237 12.5528L14.2237 14.5528C14.4707 14.6763 14.5708 14.9766 14.4473 15.2236 14.3238 15.4706 14.0235 15.5707 13.7765 15.4472L9.7765 13.4472C9.52951 13.3237 9.4294 13.0234 9.5529 12.7764zM18.6214 6.51492C18.8893 6.5819 19.0522 6.85337 18.9852 7.12126L17.4852 13.1213C17.4182 13.3892 17.1467 13.552 16.8789 13.4851 16.611 13.4181 16.4481 13.1466 16.515 12.8787L18.015 6.87873C18.082 6.61083 18.3535 6.44795 18.6214 6.51492z" clip-rule="evenodd"></path>
</svg>
