<svg xmlns="http://www.w3.org/2000/svg" width="21.719" height="23" viewBox="0 0 21.719 23">
  <g id="settings-dark" transform="translate(0.371 0.222)">
    <path id="Path_169" data-name="Path 169" d="M19.928,6.618l-.68-1.18a2.09,2.09,0,0,0-2.85-.77h0a2.08,2.08,0,0,1-2.85-.74,2,2,0,0,1-.28-1h0a2.09,2.09,0,0,0-2.09-2.15H9.808a2.08,2.08,0,0,0-2.08,2.09h0a2.09,2.09,0,0,1-2.09,2.06,2,2,0,0,1-1-.28h0a2.09,2.09,0,0,0-2.85.77l-.73,1.2a2.09,2.09,0,0,0,.76,2.85h0a2.09,2.09,0,0,1,0,3.62h0a2.08,2.08,0,0,0-.76,2.84h0l.69,1.19a2.09,2.09,0,0,0,2.85.81h0a2.07,2.07,0,0,1,2.84.76,2,2,0,0,1,.28,1h0a2.09,2.09,0,0,0,2.09,2.09h1.37a2.09,2.09,0,0,0,2.09-2.08h0a2.08,2.08,0,0,1,2.09-2.09,2.129,2.129,0,0,1,1,.28h0a2.09,2.09,0,0,0,2.85-.76h0l.72-1.2a2.08,2.08,0,0,0-.76-2.85h0a2.08,2.08,0,0,1-.76-2.85,2.05,2.05,0,0,1,.76-.76h0a2.09,2.09,0,0,0,.76-2.84h0Z" transform="translate(0 0)" fill="none" stroke="#3e3f4a" stroke-linecap="round" stroke-linejoin="round" stroke-width="2" fill-rule="evenodd"/>
    <circle id="Ellipse_30" data-name="Ellipse 30" cx="2.88" cy="2.88" r="2.88" transform="translate(7.618 8.398)" fill="none" stroke="#4056e3" stroke-linecap="round" stroke-linejoin="round" stroke-width="1.5"/>
  </g>
</svg>
