<svg width="186" height="186" viewBox="0 0 186 186" fill="none" xmlns="http://www.w3.org/2000/svg">
<path d="M94.1072 34.5029C81.8448 34.5029 69.8577 38.1392 59.6618 44.9518C49.466 51.7645 41.5193 61.4475 36.8267 72.7766C32.134 84.1056 30.9062 96.5717 33.2985 108.599C35.6908 120.625 41.5957 131.673 50.2666 140.344C58.9374 149.014 69.9848 154.919 82.0116 157.312C94.0384 159.704 106.505 158.476 117.834 153.783C129.163 149.091 138.846 141.144 145.658 130.948C152.471 120.752 156.107 108.765 156.107 96.5029C156.089 80.0652 149.551 64.306 137.927 52.6827C126.304 41.0594 110.545 34.5214 94.1072 34.5029ZM94.1072 154.074C82.7206 154.074 71.5898 150.698 62.1222 144.372C52.6547 138.046 45.2756 129.054 40.9181 118.535C36.5607 108.015 35.4206 96.4391 37.642 85.2713C39.8634 74.1035 45.3465 63.8453 53.3981 55.7938C61.4496 47.7423 71.7078 42.2591 82.8756 40.0377C94.0433 37.8163 105.619 38.9564 116.139 43.3139C126.659 47.6713 135.65 55.0504 141.976 64.518C148.302 73.9855 151.679 85.1164 151.679 96.5029C151.661 111.767 145.59 126.4 134.797 137.193C124.004 147.986 109.371 154.057 94.1072 154.074Z" fill="#14D49B"/>
<path d="M127.983 68.3528L75.5846 119.915L60.2828 103.833C59.8771 103.412 59.321 103.168 58.7362 103.155C58.1513 103.142 57.5851 103.362 57.1612 103.765C56.7374 104.168 56.4903 104.723 56.474 105.307C56.4577 105.892 56.6735 106.46 57.0743 106.886L73.9283 124.6C74.1308 124.813 74.3737 124.984 74.6429 125.102C74.9121 125.22 75.2021 125.284 75.496 125.289H75.5337C76.1145 125.288 76.672 125.06 77.0859 124.652L131.088 71.5093C131.303 71.3074 131.476 71.0644 131.596 70.7947C131.717 70.525 131.782 70.2339 131.788 69.9387C131.794 69.6435 131.741 69.35 131.632 69.0756C131.523 68.8012 131.36 68.5513 131.153 68.3408C130.946 68.1303 130.698 67.9633 130.426 67.8497C130.153 67.736 129.861 67.6781 129.565 67.6792C129.27 67.6803 128.978 67.7405 128.706 67.8562C128.435 67.9719 128.189 68.1407 127.983 68.3528Z" fill="#3E3F4A"/>
<path d="M166.87 162.655H117.646C133.229 156.873 146.284 145.798 154.527 131.365C162.771 116.932 165.678 100.061 162.742 83.7018C159.805 67.3423 151.21 52.5359 138.461 41.8719C125.712 31.2079 109.62 25.365 92.9993 25.365C76.3784 25.365 60.2863 31.2079 47.5374 41.8719C34.7884 52.5359 26.194 67.3423 23.2571 83.7018C20.3202 100.061 23.2278 116.932 31.4713 131.365C39.7148 145.798 52.7696 156.873 68.3527 162.655H19.1291C18.8141 162.613 18.4939 162.64 18.19 162.732C17.8861 162.825 17.6053 162.981 17.3666 163.191C17.1278 163.4 16.9366 163.658 16.8055 163.948C16.6745 164.237 16.6067 164.551 16.6067 164.869C16.6067 165.187 16.6745 165.501 16.8055 165.79C16.9366 166.079 17.1278 166.338 17.3666 166.547C17.6053 166.757 17.8861 166.913 18.19 167.005C18.4939 167.098 18.8141 167.124 19.1291 167.083H166.87C167.185 167.124 167.505 167.098 167.809 167.005C168.113 166.913 168.393 166.757 168.632 166.547C168.871 166.338 169.062 166.079 169.193 165.79C169.324 165.501 169.392 165.187 169.392 164.869C169.392 164.551 169.324 164.237 169.193 163.948C169.062 163.658 168.871 163.4 168.632 163.191C168.393 162.981 168.113 162.825 167.809 162.732C167.505 162.64 167.185 162.613 166.87 162.655ZM26.5713 96.226C26.5713 83.0877 30.4673 70.2444 37.7666 59.3203C45.0658 48.3962 55.4406 39.8818 67.5788 34.854C79.717 29.8262 93.0736 28.5107 105.959 31.0739C118.845 33.637 130.682 39.9637 139.972 49.2539C149.262 58.5441 155.589 70.3806 158.152 83.2664C160.715 96.1523 159.4 109.509 154.372 121.647C149.344 133.785 140.83 144.16 129.906 151.459C118.982 158.759 106.138 162.655 92.9999 162.655C75.3881 162.635 58.5033 155.63 46.0498 143.176C33.5964 130.723 26.5913 113.838 26.5713 96.226ZM97.982 19.5564C98.639 19.5564 99.2811 19.3616 99.8273 18.9966C100.374 18.6317 100.799 18.1129 101.051 17.506C101.302 16.8991 101.368 16.2313 101.24 15.587C101.111 14.9427 100.795 14.3509 100.331 13.8863C99.8661 13.4218 99.2743 13.1055 98.63 12.9773C97.9857 12.8492 97.3179 12.915 96.711 13.1664C96.1041 13.4177 95.5853 13.8435 95.2204 14.3897C94.8554 14.9359 94.6606 15.578 94.6606 16.235C94.6615 17.1156 95.0117 17.9599 95.6344 18.5826C96.2571 19.2053 97.1014 19.5555 97.982 19.5564ZM97.982 14.5742C98.3105 14.5742 98.6316 14.6716 98.9047 14.8541C99.1778 15.0366 99.3906 15.296 99.5163 15.5994C99.642 15.9029 99.6749 16.2368 99.6108 16.5589C99.5468 16.8811 99.3886 17.177 99.1563 17.4093C98.9241 17.6415 98.6282 17.7997 98.306 17.8638C97.9839 17.9278 97.65 17.8949 97.3465 17.7693C97.0431 17.6436 96.7837 17.4307 96.6012 17.1576C96.4187 16.8845 96.3213 16.5634 96.3213 16.235C96.3216 15.7946 96.4967 15.3724 96.8081 15.061C97.1194 14.7496 97.5417 14.5745 97.982 14.5742ZM175.266 75.1903C174.828 75.1903 174.4 75.3202 174.036 75.5635C173.672 75.8068 173.388 76.1526 173.22 76.5572C173.053 76.9618 173.009 77.4071 173.094 77.8366C173.18 78.2661 173.391 78.6607 173.7 78.9703C174.01 79.28 174.405 79.4909 174.834 79.5763C175.264 79.6618 175.709 79.6179 176.114 79.4503C176.518 79.2827 176.864 78.9989 177.107 78.6348C177.351 78.2706 177.48 77.8425 177.48 77.4046C177.48 76.8175 177.246 76.2546 176.831 75.8395C176.416 75.4244 175.853 75.1909 175.266 75.1903ZM175.266 78.5117C175.047 78.5117 174.833 78.4468 174.651 78.3251C174.469 78.2035 174.327 78.0306 174.243 77.8283C174.159 77.626 174.138 77.4034 174.18 77.1886C174.223 76.9738 174.328 76.7766 174.483 76.6217C174.638 76.4669 174.835 76.3614 175.05 76.3187C175.265 76.276 175.488 76.2979 175.69 76.3817C175.892 76.4655 176.065 76.6074 176.187 76.7895C176.308 76.9716 176.373 77.1856 176.373 77.4046C176.373 77.6981 176.256 77.9796 176.049 78.1871C175.841 78.3947 175.56 78.5114 175.266 78.5117ZM143.928 3.96338C143.491 3.96338 143.062 4.09324 142.698 4.33655C142.334 4.57986 142.05 4.92569 141.883 5.33029C141.715 5.7349 141.671 6.18012 141.757 6.60965C141.842 7.03918 142.053 7.43373 142.363 7.7434C142.672 8.05307 143.067 8.26397 143.496 8.3494C143.926 8.43484 144.371 8.39099 144.776 8.2234C145.18 8.0558 145.526 7.77199 145.77 7.40786C146.013 7.04372 146.143 6.61561 146.143 6.17766C146.142 5.59058 145.909 5.02771 145.494 4.61258C145.078 4.19744 144.516 3.96397 143.928 3.96338ZM143.928 7.28481C143.709 7.28481 143.495 7.21987 143.313 7.09822C143.131 6.97657 142.989 6.80365 142.906 6.60135C142.822 6.39905 142.8 6.17644 142.843 5.96167C142.885 5.74691 142.991 5.54963 143.146 5.3948C143.3 5.23996 143.498 5.13451 143.712 5.0918C143.927 5.04908 144.15 5.071 144.352 5.1548C144.554 5.2386 144.727 5.3805 144.849 5.56257C144.971 5.74464 145.036 5.95869 145.036 6.17766C145.035 6.47121 144.919 6.75264 144.711 6.96021C144.503 7.16778 144.222 7.28451 143.928 7.28481ZM178.619 16.8804C178.181 16.8804 177.753 17.0103 177.388 17.2536C177.024 17.4969 176.74 17.8427 176.573 18.2473C176.405 18.6519 176.361 19.0972 176.447 19.5267C176.532 19.9562 176.743 20.3508 177.053 20.6604C177.363 20.9701 177.757 21.181 178.187 21.2664C178.616 21.3519 179.061 21.308 179.466 21.1404C179.871 20.9728 180.216 20.689 180.46 20.3249C180.703 19.9608 180.833 19.5326 180.833 19.0947C180.832 18.5076 180.599 17.9447 180.184 17.5296C179.769 17.1145 179.206 16.881 178.619 16.8804ZM178.619 20.2018C178.4 20.2018 178.186 20.1369 178.003 20.0153C177.821 19.8936 177.68 19.7207 177.596 19.5184C177.512 19.3161 177.49 19.0935 177.533 18.8787C177.575 18.6639 177.681 18.4667 177.836 18.3118C177.991 18.157 178.188 18.0516 178.403 18.0088C178.617 17.9661 178.84 17.988 179.042 18.0718C179.245 18.1556 179.417 18.2975 179.539 18.4796C179.661 18.6617 179.726 18.8757 179.726 19.0947C179.725 19.3882 179.609 19.6697 179.401 19.8772C179.194 20.0848 178.912 20.2016 178.619 20.2018ZM33.5519 33.8562C33.5519 33.4183 33.422 32.9902 33.1787 32.626C32.9354 32.2619 32.5896 31.9781 32.185 31.8105C31.7803 31.6429 31.3351 31.5991 30.9056 31.6845C30.4761 31.7699 30.0815 31.9808 29.7718 32.2905C29.4622 32.6002 29.2513 32.9947 29.1658 33.4243C29.0804 33.8538 29.1243 34.299 29.2918 34.7036C29.4594 35.1082 29.7433 35.454 30.1074 35.6973C30.4715 35.9407 30.8996 36.0705 31.3376 36.0705C31.9247 36.0699 32.4875 35.8365 32.9027 35.4213C33.3178 35.0062 33.5513 34.4433 33.5519 33.8562ZM30.2304 33.8562C30.2304 33.6373 30.2954 33.4232 30.417 33.2411C30.5387 33.0591 30.7116 32.9172 30.9139 32.8334C31.1162 32.7496 31.3388 32.7276 31.5536 32.7704C31.7683 32.8131 31.9656 32.9185 32.1204 33.0734C32.2753 33.2282 32.3807 33.4255 32.4235 33.6402C32.4662 33.855 32.4442 34.0776 32.3604 34.2799C32.2767 34.4822 32.1347 34.6551 31.9527 34.7768C31.7706 34.8984 31.5566 34.9634 31.3376 34.9634C31.044 34.9631 30.7626 34.8463 30.555 34.6388C30.3475 34.4312 30.2307 34.1498 30.2304 33.8562Z" fill="#3E3F4A"/>
<path d="M12.0546 75.2026L13.701 73.037L12.6614 72.448L11.604 74.8726H11.5697L10.4958 72.4657L9.43846 73.0713L11.0671 75.1859V75.2203L8.51953 74.8903V76.0683L11.0837 75.7395V75.7738L9.43846 77.8874L10.4249 78.5118L11.552 76.0683H11.5863L12.6259 78.4941L13.7176 77.8708L12.0546 75.7915V75.7561L14.6697 76.0683V74.8903L12.0546 75.2369V75.2026ZM13.4651 6.90622L12.5174 8.12297L13.0854 8.48279L13.7342 7.07561H13.7541L14.3531 8.47283L14.9819 8.113L14.0242 6.91618V6.89625L15.53 7.07561V6.39693L14.0242 6.59733V6.5774L14.972 5.32965L14.373 4.99086L13.7652 6.38697H13.7441L13.1264 5.00083L12.5174 5.34958L13.4552 6.56743V6.58736L11.9882 6.39693V7.07561L13.4651 6.88629V6.90622ZM72.302 6.96822V5.81236L69.7368 6.15225V6.11793L71.351 3.99443L70.3313 3.4165L69.295 5.79575H69.2607L68.2078 3.43311L67.1704 4.02875L68.768 6.10133V6.13565L66.2692 5.81236V6.96822L68.7846 6.64493V6.67925L67.1704 8.75183L68.1392 9.36408L69.2441 6.96822H69.2773L70.297 9.34636L71.3676 8.73522L69.7368 6.69586V6.66154L72.302 6.96822ZM153.736 39.6788L155.128 37.8464L154.248 37.3482L153.355 39.3998H153.325L152.417 37.3626L151.521 37.8752L152.9 39.6644V39.6932L150.745 39.4142V40.4106L152.914 40.1327V40.1626L151.521 41.9495L152.357 42.4776L153.311 40.4106H153.339L154.218 42.4632L155.143 41.9351L153.736 40.177V40.1471L155.948 40.4106V39.4142L153.736 39.7075V39.6788Z" fill="#14D49B"/>
<path d="M2.21429 167.083C3.4372 167.083 4.42857 166.092 4.42857 164.869C4.42857 163.646 3.4372 162.655 2.21429 162.655C0.991369 162.655 0 163.646 0 164.869C0 166.092 0.991369 167.083 2.21429 167.083Z" fill="#3E3F4A"/>
<path d="M12.1785 162.655H8.85711C8.26984 162.655 7.70663 162.888 7.29137 163.303C6.87611 163.719 6.64282 164.282 6.64282 164.869C6.64282 165.456 6.87611 166.02 7.29137 166.435C7.70663 166.85 8.26984 167.083 8.85711 167.083H12.1785C12.7658 167.083 13.329 166.85 13.7443 166.435C14.1595 166.02 14.3928 165.456 14.3928 164.869C14.3928 164.282 14.1595 163.719 13.7443 163.303C13.329 162.888 12.7658 162.655 12.1785 162.655ZM177.143 162.655H173.821C173.234 162.655 172.671 162.888 172.256 163.303C171.84 163.719 171.607 164.282 171.607 164.869C171.607 165.456 171.84 166.02 172.256 166.435C172.671 166.85 173.234 167.083 173.821 167.083H177.143C177.73 167.083 178.293 166.85 178.709 166.435C179.124 166.02 179.357 165.456 179.357 164.869C179.357 164.282 179.124 163.719 178.709 163.303C178.293 162.888 177.73 162.655 177.143 162.655Z" fill="#3E3F4A"/>
<path d="M183.786 167.083C185.009 167.083 186 166.092 186 164.869C186 163.646 185.009 162.655 183.786 162.655C182.563 162.655 181.572 163.646 181.572 164.869C181.572 166.092 182.563 167.083 183.786 167.083Z" fill="#3E3F4A"/>
<path d="M130.813 171.512H121.615C121.058 171.555 120.537 171.807 120.157 172.217C119.777 172.628 119.566 173.167 119.566 173.726C119.566 174.285 119.777 174.824 120.157 175.235C120.537 175.645 121.058 175.897 121.615 175.94H130.813C131.371 175.897 131.892 175.645 132.272 175.235C132.652 174.824 132.863 174.285 132.863 173.726C132.863 173.167 132.652 172.628 132.272 172.217C131.892 171.807 131.371 171.555 130.813 171.512ZM64.3849 171.512H55.1867C54.6291 171.555 54.1083 171.807 53.7284 172.217C53.3485 172.628 53.1375 173.167 53.1375 173.726C53.1375 174.285 53.3485 174.824 53.7284 175.235C54.1083 175.645 54.6291 175.897 55.1867 175.94H64.3849C64.9425 175.897 65.4633 175.645 65.8432 175.235C66.2231 174.824 66.4342 174.285 66.4342 173.726C66.4342 173.167 66.2231 172.628 65.8432 172.217C65.4633 171.807 64.9425 171.555 64.3849 171.512ZM115.143 171.512H70.8572C70.27 171.512 69.7068 171.745 69.2915 172.16C68.8762 172.576 68.6429 173.139 68.6429 173.726C68.6429 174.313 68.8762 174.876 69.2915 175.292C69.7068 175.707 70.27 175.94 70.8572 175.94H88.5051V178.155H79.7144C79.1271 178.155 78.5639 178.388 78.1486 178.803C77.7334 179.218 77.5001 179.782 77.5001 180.369C77.5001 180.956 77.7334 181.519 78.1486 181.935C78.5639 182.35 79.1271 182.583 79.7144 182.583H107.393C107.98 182.583 108.543 182.35 108.959 181.935C109.374 181.519 109.607 180.956 109.607 180.369C109.607 179.782 109.374 179.218 108.959 178.803C108.543 178.388 107.98 178.155 107.393 178.155H97.4951V175.94H115.143C115.73 175.94 116.293 175.707 116.709 175.292C117.124 174.876 117.357 174.313 117.357 173.726C117.357 173.139 117.124 172.576 116.709 172.16C116.293 171.745 115.73 171.512 115.143 171.512Z" fill="#14D49B"/>
</svg>
